<svg width="31" height="30" viewBox="0 0 31 30" fill="none" xmlns="http://www.w3.org/2000/svg">
<path d="M26.1797 2.99976H4.81969C4.46961 2.99976 4.13386 3.13883 3.88631 3.38638C3.63877 3.63392 3.49969 3.96967 3.49969 4.31976V25.6798C3.49969 26.0298 3.63877 26.3656 3.88631 26.6131C4.13386 26.8607 4.46961 26.9998 4.81969 26.9998H16.3157V17.6998H13.1957V14.0998H16.3157V11.3998C16.2511 10.7659 16.3259 10.1255 16.535 9.5236C16.744 8.92169 17.0822 8.37281 17.5259 7.91545C17.9695 7.45809 18.5078 7.10333 19.1031 6.87604C19.6983 6.64876 20.3361 6.55446 20.9717 6.59976C21.9057 6.59401 22.8392 6.64209 23.7677 6.74376V9.98376H21.8597C20.3477 9.98376 20.0597 10.7038 20.0597 11.7478V14.0638H23.6597L23.1917 17.6638H20.0597V26.9998H26.1797C26.353 26.9998 26.5247 26.9656 26.6848 26.8993C26.845 26.8329 26.9905 26.7357 27.1131 26.6131C27.2357 26.4906 27.3329 26.345 27.3992 26.1849C27.4656 26.0247 27.4997 25.8531 27.4997 25.6798V4.31976C27.4997 4.14641 27.4656 3.97476 27.3992 3.81461C27.3329 3.65446 27.2357 3.50895 27.1131 3.38638C26.9905 3.2638 26.845 3.16657 26.6848 3.10023C26.5247 3.0339 26.353 2.99976 26.1797 2.99976Z" fill="white"/>
</svg>
