<svg width="46" height="31" viewBox="0 0 46 31" fill="none" xmlns="http://www.w3.org/2000/svg">
<path d="M15.5 3.0007C13.0277 3.0007 10.611 3.73381 8.55538 5.10733C6.49976 6.48085 4.89761 8.43308 3.95151 10.7172C3.00542 13.0012 2.75787 15.5146 3.24019 17.9393C3.7225 20.3641 4.91301 22.5914 6.66117 24.3395C8.40933 26.0877 10.6366 27.2782 13.0614 27.7605C15.4861 28.2428 17.9995 27.9953 20.2835 27.0492C22.5676 26.1031 24.5199 24.5009 25.8934 22.4453C27.2669 20.3897 28 17.973 28 15.5007C27.9964 12.1866 26.6782 9.0093 24.3348 6.66589C21.9914 4.32247 18.8141 3.00434 15.5 3.0007ZM26.455 19.0007H20.6863C21.1046 16.6861 21.1046 14.3153 20.6863 12.0007H26.455C27.1817 14.2775 27.1817 16.7239 26.455 19.0007ZM15.5 27.0007C15.4346 27.0007 15.3699 26.987 15.31 26.9605C15.2502 26.934 15.1965 26.8954 15.1525 26.8469C13.4463 25.0094 12.2125 22.6319 11.5513 20.0007H19.4488C18.7875 22.6319 17.5538 25.0094 15.8475 26.8469C15.8035 26.8954 15.7498 26.934 15.69 26.9605C15.6301 26.987 15.5654 27.0007 15.5 27.0007ZM11.3313 19.0007C10.8896 16.6883 10.8896 14.3131 11.3313 12.0007H19.6688C20.1104 14.3131 20.1104 16.6883 19.6688 19.0007H11.3313ZM15.5 4.0007C15.5654 4.00073 15.6301 4.01442 15.69 4.04089C15.7498 4.06737 15.8035 4.10605 15.8475 4.15445C17.5538 5.99195 18.7875 8.3757 19.4488 11.0007H11.5513C12.2125 8.3757 13.4463 5.99195 15.1525 4.15445C15.1965 4.10605 15.2502 4.06737 15.31 4.04089C15.3699 4.01442 15.4346 4.00073 15.5 4.0007ZM26.0825 11.0007H20.4763C19.8625 8.40945 18.7263 6.0357 17.1438 4.1182C19.0982 4.40425 20.9466 5.18733 22.5117 6.39242C24.0768 7.59751 25.3063 9.18426 26.0825 11.0007ZM13.8563 4.1182C12.2775 6.0357 11.1375 8.40945 10.5238 11.0007H4.91751C5.69366 9.18426 6.92318 7.59751 8.48831 6.39242C10.0534 5.18733 11.9018 4.40425 13.8563 4.1182ZM4.54501 12.0007H10.3138C9.89542 14.3153 9.89542 16.6861 10.3138 19.0007H4.54501C3.81835 16.7239 3.81835 14.2775 4.54501 12.0007ZM4.92001 20.0007H10.5238C11.1375 22.5919 12.2738 24.9657 13.8563 26.8832C11.9018 26.5971 10.0534 25.8141 8.48831 24.609C6.92318 23.4039 5.69366 21.8171 4.91751 20.0007H4.92001ZM17.1463 26.8832C18.725 24.9657 19.865 22.5919 20.4788 20.0007H26.085C25.3086 21.8175 24.0787 23.4044 22.5131 24.6095C20.9475 25.8147 19.0987 26.5975 17.1438 26.8832H17.1463Z" fill="black"/>
<path d="M32.89 25.1207C32.3233 25.1207 31.84 25.014 31.44 24.8007C31.04 24.5807 30.7 24.2807 30.42 23.9007L31.04 23.3807C31.2867 23.7074 31.56 23.9574 31.86 24.1307C32.16 24.2974 32.5133 24.3807 32.92 24.3807C33.42 24.3807 33.8 24.2607 34.06 24.0207C34.3267 23.7807 34.46 23.4607 34.46 23.0607C34.46 22.7274 34.36 22.4707 34.16 22.2907C33.96 22.1107 33.63 21.9674 33.17 21.8607L32.6 21.7307C31.96 21.584 31.47 21.364 31.13 21.0707C30.7967 20.7707 30.63 20.3507 30.63 19.8107C30.63 19.504 30.6867 19.2307 30.8 18.9907C30.9133 18.7507 31.07 18.5507 31.27 18.3907C31.4767 18.2307 31.72 18.1107 32 18.0307C32.2867 17.944 32.6 17.9007 32.94 17.9007C33.4667 17.9007 33.9167 17.9974 34.29 18.1907C34.67 18.384 34.99 18.6674 35.25 19.0407L34.62 19.5007C34.4267 19.234 34.1933 19.024 33.92 18.8707C33.6467 18.7174 33.3067 18.6407 32.9 18.6407C32.4533 18.6407 32.1 18.7374 31.84 18.9307C31.5867 19.1174 31.46 19.4007 31.46 19.7807C31.46 20.114 31.5667 20.3674 31.78 20.5407C32 20.7074 32.33 20.8407 32.77 20.9407L33.34 21.0707C34.0267 21.224 34.5233 21.4574 34.83 21.7707C35.1367 22.084 35.29 22.5007 35.29 23.0207C35.29 23.3407 35.2333 23.6307 35.12 23.8907C35.0133 24.1507 34.8567 24.3707 34.65 24.5507C34.4433 24.7307 34.19 24.8707 33.89 24.9707C33.5967 25.0707 33.2633 25.1207 32.89 25.1207ZM36.7405 25.0007V18.0207H41.0005V18.7607H37.5805V21.1007H40.8005V21.8407H37.5805V24.2607H41.0005V25.0007H36.7405Z" fill="black"/>
</svg>
