<svg width="47" height="31" viewBox="0 0 47 31" fill="none" xmlns="http://www.w3.org/2000/svg">
<path d="M15.5 3C13.0277 3 10.611 3.73311 8.55538 5.10663C6.49976 6.48015 4.89761 8.43238 3.95151 10.7165C3.00542 13.0005 2.75787 15.5139 3.24019 17.9386C3.7225 20.3634 4.91301 22.5907 6.66117 24.3388C8.40933 26.087 10.6366 27.2775 13.0614 27.7598C15.4861 28.2421 17.9995 27.9946 20.2835 27.0485C22.5676 26.1024 24.5199 24.5002 25.8934 22.4446C27.2669 20.389 28 17.9723 28 15.5C27.9964 12.1859 26.6782 9.0086 24.3348 6.66518C21.9914 4.32177 18.8141 3.00364 15.5 3ZM26.455 19H20.6863C21.1046 16.6854 21.1046 14.3146 20.6863 12H26.455C27.1817 14.2768 27.1817 16.7232 26.455 19ZM15.5 27C15.4346 27 15.3699 26.9863 15.31 26.9598C15.2502 26.9333 15.1965 26.8946 15.1525 26.8462C13.4463 25.0087 12.2125 22.6312 11.5513 20H19.4488C18.7875 22.6312 17.5538 25.0087 15.8475 26.8462C15.8035 26.8946 15.7498 26.9333 15.69 26.9598C15.6301 26.9863 15.5654 27 15.5 27ZM11.3313 19C10.8896 16.6876 10.8896 14.3124 11.3313 12H19.6688C20.1104 14.3124 20.1104 16.6876 19.6688 19H11.3313ZM15.5 4C15.5654 4.00003 15.6301 4.01371 15.69 4.04019C15.7498 4.06667 15.8035 4.10534 15.8475 4.15375C17.5538 5.99125 18.7875 8.375 19.4488 11H11.5513C12.2125 8.375 13.4463 5.99125 15.1525 4.15375C15.1965 4.10534 15.2502 4.06667 15.31 4.04019C15.3699 4.01371 15.4346 4.00003 15.5 4ZM26.0825 11H20.4763C19.8625 8.40875 18.7263 6.035 17.1438 4.1175C19.0982 4.40355 20.9466 5.18662 22.5117 6.39171C24.0768 7.59681 25.3063 9.18356 26.0825 11ZM13.8563 4.1175C12.2775 6.035 11.1375 8.40875 10.5238 11H4.91751C5.69366 9.18356 6.92318 7.59681 8.48831 6.39171C10.0534 5.18662 11.9018 4.40355 13.8563 4.1175ZM4.54501 12H10.3138C9.89542 14.3146 9.89542 16.6854 10.3138 19H4.54501C3.81835 16.7232 3.81835 14.2768 4.54501 12ZM4.92001 20H10.5238C11.1375 22.5912 12.2738 24.965 13.8563 26.8825C11.9018 26.5964 10.0534 25.8134 8.48831 24.6083C6.92318 23.4032 5.69366 21.8164 4.91751 20H4.92001ZM17.1463 26.8825C18.725 24.965 19.865 22.5912 20.4788 20H26.085C25.3086 21.8168 24.0787 23.4037 22.5131 24.6088C20.9475 25.814 19.0987 26.5968 17.1438 26.8825H17.1463Z" fill="black"/>
<path d="M30.93 25V18.02H35.19V18.76H31.77V21.1H34.99V21.84H31.77V24.26H35.19V25H30.93ZM38.4501 20.74L37.6101 19.19H37.5801V25H36.7601V18.02H37.7301L40.2801 22.28L41.1201 23.83H41.1501V18.02H41.9701V25H41.0001L38.4501 20.74Z" fill="black"/>
</svg>
