<svg width="31" height="27" viewBox="0 0 31 27" fill="none" xmlns="http://www.w3.org/2000/svg">
<rect x="29.6719" y="0.693874" width="25.6121" height="28.3439" transform="rotate(90 29.6719 0.693874)" stroke="white" stroke-width="1.02447"/>
<path d="M17.1799 19.9606L23.3266 13.8139C23.3679 13.7727 23.4006 13.7237 23.423 13.6698C23.4453 13.6159 23.4568 13.5582 23.4568 13.4998C23.4568 13.4415 23.4453 13.3837 23.423 13.3298C23.4006 13.276 23.3679 13.227 23.3267 13.1858C23.3266 13.1858 23.3266 13.1858 23.3266 13.1858L17.1799 7.03899C17.1386 6.99775 17.0897 6.96503 17.0358 6.94271C16.9819 6.92039 16.9241 6.90891 16.8658 6.90891C16.8075 6.90891 16.7497 6.92039 16.6959 6.94271C16.642 6.96503 16.593 6.99775 16.5518 7.03899C16.5105 7.08023 16.4778 7.12919 16.4555 7.18307C16.4332 7.23696 16.4217 7.29471 16.4217 7.35303C16.4217 7.41136 16.4332 7.46911 16.4555 7.52299C16.4778 7.57687 16.5105 7.62583 16.5518 7.66708L21.9406 13.0559L7.98709 13.0559C7.86936 13.0559 7.75644 13.1027 7.67318 13.1859C7.58993 13.2692 7.54316 13.3821 7.54316 13.4998C7.54316 13.6176 7.58993 13.7305 7.67318 13.8137C7.75644 13.897 7.86936 13.9438 7.98709 13.9438L21.9406 13.9438L16.5518 19.3326C16.5518 19.3326 16.5518 19.3326 16.5518 19.3326C16.5105 19.3738 16.4778 19.4228 16.4554 19.4766C16.4331 19.5305 16.4216 19.5883 16.4216 19.6466C16.4216 19.705 16.4331 19.7627 16.4554 19.8166C16.4778 19.8705 16.5105 19.9194 16.5517 19.9606H17.1799Z" fill="white" stroke="white" stroke-width="0.204893"/>
</svg>
