<svg width="38" height="35" viewBox="0 0 38 35" fill="white" xmlns="http://www.w3.org/2000/svg">
<g filter="url(#filter0_d_489_76)">
<rect x="32.8561" y="0.849392" width="25.6121" height="28.3439" transform="rotate(90 32.8561 0.849392)" stroke="black" stroke-width="1.02447" shape-rendering="crispEdges"/>
<path d="M11.1713 14.0992L25.1248 14.0992L19.736 19.488C19.736 19.488 19.736 19.488 19.736 19.488C19.6947 19.5292 19.662 19.5782 19.6396 19.632C19.6173 19.6859 19.6058 19.7437 19.6058 19.802C19.6058 19.8604 19.6173 19.9181 19.6396 19.972C19.662 20.0259 19.6947 20.0749 19.736 20.1161C19.7772 20.1573 19.8261 20.1901 19.88 20.2124C19.9339 20.2347 19.9917 20.2462 20.05 20.2462C20.1084 20.2462 20.1661 20.2347 20.22 20.2124C20.2739 20.1901 20.3228 20.1573 20.3641 20.1161C20.3641 20.1161 20.3641 20.1161 20.3641 20.116L26.5108 13.9693C26.5108 13.9693 26.5108 13.9693 26.5109 13.9693C26.5521 13.9281 26.5848 13.8791 26.6072 13.8252C26.6295 13.7713 26.641 13.7136 26.641 13.6552C26.641 13.5969 26.6295 13.5391 26.6072 13.4852C26.5848 13.4314 26.5521 13.3824 26.5109 13.3412C26.5108 13.3412 26.5108 13.3412 26.5108 13.3411L20.3641 7.19438C20.3228 7.15314 20.2739 7.12043 20.22 7.09811C20.1661 7.07579 20.1083 7.0643 20.05 7.0643C19.9917 7.0643 19.9339 7.07579 19.8801 7.09811C19.8262 7.12043 19.7772 7.15314 19.736 7.19438C19.6947 7.23562 19.662 7.28458 19.6397 7.33847C19.6174 7.39235 19.6059 7.4501 19.6059 7.50843C19.6059 7.56675 19.6174 7.6245 19.6397 7.67839C19.662 7.73227 19.6947 7.78123 19.736 7.82247L25.1248 13.2113L11.1713 13.2113C11.0536 13.2113 10.9406 13.2581 10.8574 13.3413C10.7741 13.4246 10.7274 13.5375 10.7274 13.6552C10.7274 13.773 10.7741 13.8859 10.8574 13.9691C10.9406 14.0524 11.0536 14.0992 11.1713 14.0992Z" fill="black" stroke="black" stroke-width="0.204893"/>
</g>
<defs>
<filter id="filter0_d_489_76" x="0" y="0.337158" width="37.3683" height="34.6367" filterUnits="userSpaceOnUse" color-interpolation-filters="sRGB">
<feFlood flood-opacity="0" result="BackgroundImageFix"/>
<feColorMatrix in="SourceAlpha" type="matrix" values="0 0 0 0 0 0 0 0 0 0 0 0 0 0 0 0 0 0 127 0" result="hardAlpha"/>
<feOffset dy="4"/>
<feGaussianBlur stdDeviation="2"/>
<feComposite in2="hardAlpha" operator="out"/>
<feColorMatrix type="matrix" values="0 0 0 0 0 0 0 0 0 0 0 0 0 0 0 0 0 0 0.25 0"/>
<feBlend mode="normal" in2="BackgroundImageFix" result="effect1_dropShadow_489_76"/>
<feBlend mode="normal" in="SourceGraphic" in2="effect1_dropShadow_489_76" result="shape"/>
</filter>
</defs>
</svg>
