<svg width="35" height="34" viewBox="0 0 35 34" fill="none" xmlns="http://www.w3.org/2000/svg">
<path d="M15.8321 4.25066C14.1906 4.25075 12.5651 4.57416 11.0486 5.20243C9.53207 5.8307 8.15414 6.75152 6.99347 7.91231C5.8328 9.07311 4.91213 10.4512 4.28403 11.9678C3.65593 13.4844 3.3327 15.1098 3.33279 16.7514C3.33289 18.3929 3.6563 20.0183 4.28457 21.5348C4.91283 23.0514 5.83365 24.4293 6.99445 25.59C8.15525 26.7507 9.53329 27.6713 11.0499 28.2994C12.5665 28.9275 14.192 29.2507 15.8335 29.2507C19.1487 29.2505 22.328 27.9333 24.6721 25.589C27.0162 23.2447 28.333 20.0652 28.3328 16.75C28.3326 13.4348 27.0155 10.2554 24.6711 7.91133C22.3268 5.56726 19.1473 4.25047 15.8321 4.25066ZM18.0264 8.93095H19.1375V12.653C19.1375 12.8891 19.2486 12.8891 19.2902 12.8891C19.4569 12.8891 19.7069 12.7085 19.8319 12.5835V8.91706H20.9429V13.8335H19.8319V13.4029C19.6791 13.5418 19.5263 13.6529 19.3736 13.7362C19.1652 13.8473 18.9708 13.889 18.7764 13.889C18.6699 13.8941 18.5637 13.8756 18.4652 13.8348C18.3668 13.7939 18.2786 13.7318 18.207 13.6529C18.082 13.5001 18.0264 13.264 18.0264 12.9724V8.93095ZM14.485 10.2225C14.485 9.4587 15.1099 8.83374 15.8738 8.83374C16.6376 8.83374 17.2626 9.4587 17.2626 10.2225V12.5835C17.2626 13.3474 16.6376 13.9723 15.8738 13.9723C15.1099 13.9723 14.485 13.3474 14.485 12.5835V10.2225ZM11.5962 7.2366L12.2629 9.68091L12.9434 7.2366H14.2072L12.9017 11.0975V13.8335H11.6657V11.0975L10.3324 7.2366H11.5962ZM22.5678 24.6523C21.8595 25.3467 15.8599 25.3606 15.8599 25.3606C15.8599 25.3606 9.8741 25.3467 9.15191 24.6523C8.44362 23.9579 8.44362 20.4998 8.44362 20.472C8.44362 20.4581 8.44362 16.9999 9.15191 16.2917C9.86021 15.5972 15.8599 15.5834 15.8599 15.5834C15.8599 15.5834 21.8457 15.5972 22.5678 16.2917C23.2761 16.9861 23.29 20.4442 23.29 20.472C23.29 20.472 23.29 23.944 22.5678 24.6523Z" fill="black"/>
<path d="M9.57809 18.2272H10.6122V23.2662H11.6039V18.2272H12.6381V17.3758H9.57809V18.2272ZM14.8055 22.2193C14.6355 22.4147 14.0547 22.8055 14.0547 22.2472V18.9112H13.1764V22.5543C13.1764 23.657 14.2955 23.3639 14.8197 22.7916V23.2662H15.698V18.9112H14.8197V22.2193H14.8055ZM18.078 18.8833C17.568 18.8833 17.2422 19.2601 17.2422 19.2601V17.3618H16.3497V23.2662H17.2422V22.9312C17.2422 22.9312 17.5397 23.322 18.078 23.322C18.5455 23.322 18.8996 22.9172 18.8996 22.3589V19.9441C18.8996 19.288 18.588 18.8833 18.078 18.8833ZM17.9788 22.2472C17.9788 22.5682 17.7522 22.7218 17.4547 22.5962C17.3743 22.5592 17.3021 22.507 17.2422 22.4426V19.7347C17.2988 19.6789 17.3697 19.637 17.4263 19.5951C17.738 19.4416 17.9788 19.6789 17.9788 19.9999V22.2472ZM21.2513 22.0239C21.2513 22.3589 21.0671 22.5822 20.8546 22.5962C20.628 22.6101 20.4013 22.4287 20.4013 22.0239V21.2003H22.0871V20.0837C22.0914 19.9136 22.0611 19.7445 21.9978 19.5862C21.9345 19.428 21.8396 19.2839 21.7188 19.1624C21.4751 18.9434 21.1561 18.8237 20.8263 18.8274C20.5146 18.8274 20.1888 18.9251 19.9338 19.1205C19.6646 19.3299 19.4946 19.651 19.4946 20.0837V22.0378C19.4946 22.4287 19.6221 22.7357 19.8205 22.9591C20.0613 23.2103 20.3871 23.3499 20.7271 23.3639C21.138 23.3778 21.5771 23.2103 21.8321 22.8614C21.9879 22.652 22.0871 22.3728 22.0871 22.0378V21.8145H21.2513V22.0239ZM20.4013 20.0837C20.4013 19.8464 20.543 19.5672 20.8121 19.5672C21.0813 19.5672 21.2513 19.8185 21.2513 20.0837V20.5303H20.4013V20.0837Z" fill="black"/>
<path d="M15.8186 13.1291C16.0595 13.1291 16.1728 12.9895 16.187 12.7662V10.1141C16.187 9.93266 16.0028 9.77911 15.8328 9.77911C15.6628 9.77911 15.4786 9.9187 15.4786 10.1141V12.7662C15.4786 12.9756 15.5778 13.1151 15.8186 13.1291Z" fill="black"/>
</svg>
