<svg width="36" height="33" viewBox="0 0 36 33" fill="none" xmlns="http://www.w3.org/2000/svg">
<rect x="35.3721" y="0.627901" width="31.3956" height="34.7442" transform="rotate(90 35.3721 0.627901)" stroke="black" stroke-width="1.2558"/>
<path d="M25.895 16.8699H8.79063C8.6463 16.8699 8.50788 16.8126 8.40583 16.7105C8.30378 16.6085 8.24645 16.47 8.24645 16.3257C8.24645 16.1814 8.30378 16.043 8.40583 15.9409C8.50789 15.8389 8.6463 15.7815 8.79063 15.7815L25.895 15.7815L19.2893 9.17586C19.2387 9.12531 19.1986 9.06529 19.1713 8.99924C19.1439 8.93319 19.1298 8.8624 19.1298 8.7909C19.1298 8.71941 19.1439 8.64862 19.1713 8.58257C19.1986 8.51652 19.2387 8.4565 19.2893 8.40594C19.3398 8.35539 19.3999 8.31529 19.4659 8.28793C19.532 8.26057 19.6028 8.24649 19.6742 8.24649C19.7457 8.24649 19.8165 8.26057 19.8826 8.28793C19.9486 8.31529 20.0087 8.35539 20.0592 8.40594L27.594 15.9407L27.594 15.9408L27.5052 16.0296C27.5441 16.0684 27.575 16.1146 27.5961 16.1654C27.6171 16.2162 27.628 16.2707 27.628 16.3257C27.628 16.3807 27.6171 16.4352 27.5961 16.486C27.575 16.5368 27.5441 16.583 27.5052 16.6219L25.895 16.8699ZM25.895 16.8699L19.2893 23.4755C19.2387 23.5261 19.1986 23.5861 19.1712 23.6521C19.1438 23.7182 19.1297 23.789 19.1297 23.8605C19.1297 23.932 19.1438 24.0029 19.1712 24.0689C19.1986 24.135 19.2387 24.195 19.2893 24.2455L25.895 16.8699ZM20.0593 24.2454L27.594 16.7107L20.0592 24.2455L20.0593 24.2454Z" fill="black" stroke="black" stroke-width="0.25116"/>
</svg>
