<svg width="96" height="96" viewBox="0 0 96 96" fill="none" xmlns="http://www.w3.org/2000/svg">
<circle cx="48" cy="48" r="48" fill="white"/>
<path fill-rule="evenodd" clip-rule="evenodd" d="M56.0452 25H32C32.3895 28.8309 33.2777 30.0938 36.6378 29.9946H46.3161L46.3161 45.7121H46.2845C38.5993 45.3869 36.8239 47.6499 36.7317 54.6503V68.8358H36.7341L46.316 74.2087V74.2202L51.3161 77.0128L51.32 77.0146V71.3013L51.3161 71.2991V50.5665C59.8588 50.5321 62.7481 49.3439 65.0493 45.7447C67.7328 41.7441 68.0624 35.0325 65.0703 29.9946C62.9532 27.1813 61.013 25.1724 56.0452 25ZM55.5919 45.7121C65.0791 45.3949 65.4538 29.9946 55.2963 29.9946H51.3161V45.7121H55.5919ZM46.3161 50.5671H46.2845C42.9166 50.5549 41.8941 51.2794 41.7317 54.6503V65.9117L46.316 68.4886L46.3161 50.5671Z" fill="black"/>
</svg>
