<svg width="33" height="31" viewBox="0 0 33 31" fill="none" xmlns="http://www.w3.org/2000/svg">
<path d="M9.60494 7.39453V27.3945H5.01294V7.39453H9.60494ZM21.0649 7.39453C21.0649 11.5885 19.4819 15.4995 16.6499 18.4625L16.3719 18.7455L22.7149 27.3945H17.0469L10.1539 17.9945L11.9329 16.6625C14.7909 14.5225 16.4679 11.2845 16.5699 7.73853L16.5749 7.39453H21.0649ZM26.5129 22.3945C27.176 22.3945 27.8119 22.6579 28.2807 23.1268C28.7495 23.5956 29.0129 24.2315 29.0129 24.8945C29.0129 25.5576 28.7495 26.1935 28.2807 26.6623C27.8119 27.1311 27.176 27.3945 26.5129 27.3945C25.8499 27.3945 25.214 27.1311 24.7452 26.6623C24.2763 26.1935 24.0129 25.5576 24.0129 24.8945C24.0129 24.2315 24.2763 23.5956 24.7452 23.1268C25.214 22.6579 25.8499 22.3945 26.5129 22.3945Z" fill="white"/>
</svg>
