<svg width="135" height="114" viewBox="0 0 135 114" fill="black" xmlns="http://www.w3.org/2000/svg">
<path fill-rule="evenodd" clip-rule="evenodd" d="M70.3549 31.6443H59.712C59.8844 33.3399 60.2776 33.8989 61.7648 33.855H66.0486L66.0486 40.8119H66.0347C62.633 40.668 61.8472 41.6696 61.8064 44.7682V51.047H61.8074L66.0486 53.4252V53.4303L68.2618 54.6663L68.2635 54.6671V52.1383L68.2618 52.1373V42.9606C72.043 42.9454 73.3218 42.4194 74.3404 40.8264C75.5282 39.0556 75.6741 36.0849 74.3497 33.855C73.4126 32.6098 72.5538 31.7206 70.3549 31.6443ZM70.1543 40.8119C74.3536 40.6716 74.5194 33.855 70.0235 33.855H68.2618V40.8119H70.1543ZM66.0486 42.9609H66.0347C64.5439 42.9555 64.0913 43.2761 64.0195 44.7682V49.7528L66.0486 50.8933L66.0486 42.9609Z" fill="white"/>
<path d="M28.9518 74.6671V62.3091H34.5111C35.0777 62.3091 35.5852 62.4035 36.0338 62.5924C36.4941 62.7694 36.8836 63.0291 37.2023 63.3714C37.521 63.7019 37.763 64.1032 37.9282 64.5753C38.0934 65.0475 38.1761 65.5668 38.1761 66.1334C38.1761 66.7117 38.0934 67.237 37.9282 67.7091C37.763 68.1694 37.521 68.5708 37.2023 68.913C36.8836 69.2435 36.4941 69.5032 36.0338 69.6921C35.5852 69.8691 35.0777 69.9576 34.5111 69.9576H31.2889V74.6671H28.9518ZM31.2889 67.9393H34.2987C34.7472 67.9393 35.1013 67.8212 35.361 67.5852C35.6207 67.3373 35.7505 66.9891 35.7505 66.5406V65.7262C35.7505 65.2776 35.6207 64.9353 35.361 64.6993C35.1013 64.4632 34.7472 64.3452 34.2987 64.3452H31.2889V67.9393ZM42.3696 74.6671V65.4252H44.6359V67.3373H44.7244C44.7834 67.0894 44.8719 66.8534 44.99 66.6291C45.1198 66.393 45.2851 66.1865 45.4857 66.0094C45.6864 65.8324 45.9224 65.6908 46.1939 65.5845C46.4772 65.4783 46.8018 65.4252 47.1677 65.4252H47.6634V67.5675H46.9552C46.188 67.5675 45.6096 67.6796 45.2201 67.9039C44.8306 68.1281 44.6359 68.494 44.6359 69.0016V74.6671H42.3696ZM55.2888 74.8796C54.6279 74.8796 54.0318 74.7675 53.5006 74.5432C52.9813 74.3189 52.5328 73.9944 52.1551 73.5694C51.7892 73.1445 51.5059 72.637 51.3052 72.0468C51.1046 71.4448 51.0042 70.7721 51.0042 70.0285C51.0042 69.2848 51.1046 68.618 51.3052 68.0278C51.5059 67.4376 51.7892 66.936 52.1551 66.5229C52.5328 66.098 52.9813 65.7734 53.5006 65.5491C54.0318 65.3248 54.6279 65.2127 55.2888 65.2127C55.9498 65.2127 56.5459 65.3248 57.077 65.5491C57.6082 65.7734 58.0567 66.098 58.4226 66.5229C58.8003 66.936 59.0895 67.4376 59.2902 68.0278C59.4908 68.618 59.5911 69.2848 59.5911 70.0285C59.5911 70.7721 59.4908 71.4448 59.2902 72.0468C59.0895 72.637 58.8003 73.1445 58.4226 73.5694C58.0567 73.9944 57.6082 74.3189 57.077 74.5432C56.5459 74.7675 55.9498 74.8796 55.2888 74.8796ZM55.2888 73.056C55.8908 73.056 56.3629 72.873 56.7052 72.5071C57.0475 72.1412 57.2187 71.6042 57.2187 70.896V69.1786C57.2187 68.4822 57.0475 67.9511 56.7052 67.5852C56.3629 67.2193 55.8908 67.0363 55.2888 67.0363C54.6987 67.0363 54.2324 67.2193 53.8902 67.5852C53.5479 67.9511 53.3767 68.4822 53.3767 69.1786V70.896C53.3767 71.6042 53.5479 72.1412 53.8902 72.5071C54.2324 72.873 54.6987 73.056 55.2888 73.056ZM67.8075 64.3806V74.6671H65.4704V64.3806H61.9648V62.3091H71.313V64.3806H67.8075ZM78.0524 74.8796C77.3678 74.8796 76.754 74.7675 76.2111 74.5432C75.6799 74.3071 75.2255 73.9826 74.8478 73.5694C74.4819 73.1445 74.1986 72.637 73.998 72.0468C73.7973 71.4448 73.697 70.7721 73.697 70.0285C73.697 69.2967 73.7914 68.6357 73.9803 68.0455C74.1809 67.4553 74.4642 66.9537 74.8301 66.5406C75.196 66.1157 75.6445 65.7911 76.1757 65.5668C76.7068 65.3307 77.3088 65.2127 77.9816 65.2127C78.7016 65.2127 79.3271 65.3367 79.8583 65.5845C80.3894 65.8324 80.8262 66.1688 81.1685 66.5937C81.5107 67.0186 81.7645 67.5144 81.9298 68.0809C82.1068 68.6357 82.1953 69.2317 82.1953 69.8691V70.6127H76.0517V70.8429C76.0517 71.5157 76.2406 72.0586 76.6183 72.4717C76.996 72.873 77.5566 73.0737 78.3003 73.0737C78.8668 73.0737 79.3271 72.9557 79.6812 72.7196C80.0471 72.4835 80.3717 72.1826 80.655 71.8167L81.8767 73.1799C81.4989 73.7111 80.9796 74.1301 80.3186 74.437C79.6694 74.7321 78.914 74.8796 78.0524 74.8796ZM78.017 66.9124C77.415 66.9124 76.937 67.113 76.5829 67.5144C76.2288 67.9157 76.0517 68.435 76.0517 69.0724V69.214H79.8406V69.0547C79.8406 68.4173 79.6812 67.9039 79.3626 67.5144C79.0557 67.113 78.6071 66.9124 78.017 66.9124ZM90.2266 74.8796C89.542 74.8796 88.9341 74.7675 88.403 74.5432C87.8718 74.3189 87.4233 73.9944 87.0574 73.5694C86.7033 73.1445 86.4318 72.637 86.243 72.0468C86.0541 71.4448 85.9597 70.7721 85.9597 70.0285C85.9597 69.2848 86.0541 68.618 86.243 68.0278C86.4318 67.4376 86.7033 66.936 87.0574 66.5229C87.4233 66.098 87.8718 65.7734 88.403 65.5491C88.9341 65.3248 89.542 65.2127 90.2266 65.2127C91.1591 65.2127 91.9263 65.4193 92.5282 65.8324C93.142 66.2455 93.5846 66.818 93.8561 67.5498L91.9971 68.3819C91.8909 67.9924 91.6902 67.6737 91.3951 67.4258C91.1118 67.1662 90.7223 67.0363 90.2266 67.0363C89.5892 67.0363 89.1112 67.237 88.7925 67.6383C88.4856 68.0396 88.3322 68.5648 88.3322 69.214V70.896C88.3322 71.5452 88.4856 72.0704 88.7925 72.4717C89.1112 72.8612 89.5892 73.056 90.2266 73.056C90.7695 73.056 91.1886 72.9203 91.4836 72.6488C91.7787 72.3655 92.0089 72.0173 92.1741 71.6042L93.9092 72.4363C93.6023 73.2508 93.1361 73.8645 92.5105 74.2776C91.885 74.6789 91.1236 74.8796 90.2266 74.8796ZM98.0468 61.5655H100.313V66.9655H100.402C100.59 66.4698 100.885 66.0567 101.287 65.7262C101.7 65.3839 102.266 65.2127 102.986 65.2127C103.943 65.2127 104.674 65.5255 105.182 66.1511C105.689 66.7767 105.943 67.6678 105.943 68.8245V74.6671H103.677V69.0547C103.677 68.3937 103.559 67.898 103.323 67.5675C103.087 67.237 102.697 67.0717 102.154 67.0717C101.918 67.0717 101.688 67.1071 101.464 67.178C101.251 67.237 101.057 67.3314 100.88 67.4612C100.714 67.5793 100.579 67.7327 100.472 67.9216C100.366 68.0986 100.313 68.3111 100.313 68.5589V74.6671H98.0468V61.5655Z" fill="white"/>
<path d="M44.4004 85.6208L43.8746 86.2051V87.4426H43.4284V83.7352H43.8746V85.7058H43.8905L44.4216 85.0631L45.5424 83.7352H46.0894L44.7085 85.3233L46.185 87.4426H45.6327L44.4004 85.6208ZM48.76 87.4426V83.7352H51.0227V84.1283H49.2062V85.3712H50.9165V85.7642H49.2062V87.0496H51.0227V87.4426H48.76ZM53.8219 87.4426V83.7352H56.0846V84.1283H54.268V85.3712H55.9783V85.7642H54.268V87.0496H56.0846V87.4426H53.8219ZM58.8837 87.4426V83.7352H60.3603C60.6932 83.7352 60.9481 83.8308 61.1252 84.022C61.3058 84.2097 61.3961 84.4682 61.3961 84.7975C61.3961 85.1268 61.3058 85.3871 61.1252 85.5783C60.9481 85.766 60.6932 85.8598 60.3603 85.8598H59.3299V87.4426H58.8837ZM59.3299 85.4668H60.3603C60.5374 85.4668 60.6737 85.4207 60.7693 85.3287C60.8685 85.2366 60.918 85.1056 60.918 84.9356V84.6594C60.918 84.4894 60.8685 84.3584 60.7693 84.2664C60.6737 84.1743 60.5374 84.1283 60.3603 84.1283H59.3299V85.4668ZM68.5972 87.5064C68.1263 87.5064 67.7598 87.347 67.4978 87.0283C67.2357 86.7061 67.1047 86.2334 67.1047 85.6102C67.1047 84.987 67.2357 84.5089 67.4978 84.1761C67.7598 83.8397 68.1263 83.6715 68.5972 83.6715C68.9088 83.6715 69.1691 83.7423 69.378 83.8839C69.5905 84.0256 69.7551 84.2256 69.872 84.4841L69.5108 84.7019C69.4364 84.5107 69.3231 84.3584 69.1709 84.2451C69.0186 84.1283 68.8274 84.0698 68.5972 84.0698C68.4379 84.0698 68.2945 84.0999 68.167 84.1601C68.0431 84.2203 67.9368 84.3071 67.8483 84.4204C67.7633 84.5302 67.6978 84.663 67.6518 84.8188C67.6058 84.971 67.5827 85.1428 67.5827 85.334V85.8864C67.5827 86.2688 67.6713 86.568 67.8483 86.784C68.0254 87 68.275 87.108 68.5972 87.108C68.8345 87.108 69.0328 87.0478 69.1921 86.9274C69.3515 86.8035 69.4683 86.6406 69.5427 86.4388L69.8985 86.6618C69.7817 86.9239 69.6135 87.131 69.394 87.2833C69.1744 87.432 68.9088 87.5064 68.5972 87.5064ZM73.8736 87.5064C73.6329 87.5064 73.4151 87.4656 73.2203 87.3842C73.0291 87.2992 72.8645 87.1771 72.7264 87.0177C72.5918 86.8548 72.4874 86.6548 72.413 86.4175C72.3386 86.1767 72.3015 85.9005 72.3015 85.5889C72.3015 85.2773 72.3386 85.0029 72.413 84.7656C72.4874 84.5284 72.5918 84.3283 72.7264 84.1654C72.8645 84.0026 73.0291 83.8804 73.2203 83.799C73.4151 83.714 73.6329 83.6715 73.8736 83.6715C74.1109 83.6715 74.3269 83.714 74.5216 83.799C74.7164 83.8804 74.8811 84.0026 75.0156 84.1654C75.1537 84.3283 75.2599 84.5284 75.3343 84.7656C75.4087 85.0029 75.4458 85.2773 75.4458 85.5889C75.4458 85.9005 75.4087 86.1767 75.3343 86.4175C75.2599 86.6548 75.1537 86.8548 75.0156 87.0177C74.8811 87.1771 74.7164 87.2992 74.5216 87.3842C74.3269 87.4656 74.1109 87.5064 73.8736 87.5064ZM73.8736 87.108C74.033 87.108 74.1799 87.0797 74.3145 87.023C74.4491 86.9664 74.5641 86.8849 74.6597 86.7787C74.7589 86.6725 74.835 86.545 74.8881 86.3963C74.9413 86.2475 74.9678 86.0811 74.9678 85.897V85.2809C74.9678 85.0967 74.9413 84.9303 74.8881 84.7816C74.835 84.6329 74.7589 84.5054 74.6597 84.3992C74.5641 84.2929 74.4491 84.2115 74.3145 84.1548C74.1799 84.0982 74.033 84.0698 73.8736 84.0698C73.7143 84.0698 73.5674 84.0982 73.4328 84.1548C73.2982 84.2115 73.1814 84.2929 73.0822 84.3992C72.9866 84.5054 72.9123 84.6329 72.8592 84.7816C72.806 84.9303 72.7795 85.0967 72.7795 85.2809V85.897C72.7795 86.0811 72.806 86.2475 72.8592 86.3963C72.9123 86.545 72.9866 86.6725 73.0822 86.7787C73.1814 86.8849 73.2982 86.9664 73.4328 87.023C73.5674 87.0797 73.7143 87.108 73.8736 87.108ZM79.5995 87.5064C79.3587 87.5064 79.1409 87.4656 78.9461 87.3842C78.7549 87.2992 78.5903 87.1771 78.4522 87.0177C78.3176 86.8548 78.2132 86.6548 78.1388 86.4175C78.0644 86.1767 78.0273 85.9005 78.0273 85.5889C78.0273 85.2773 78.0644 85.0029 78.1388 84.7656C78.2132 84.5284 78.3176 84.3283 78.4522 84.1654C78.5903 84.0026 78.7549 83.8804 78.9461 83.799C79.1409 83.714 79.3587 83.6715 79.5995 83.6715C79.8367 83.6715 80.0527 83.714 80.2475 83.799C80.4422 83.8804 80.6069 84.0026 80.7414 84.1654C80.8795 84.3283 80.9858 84.5284 81.0601 84.7656C81.1345 85.0029 81.1717 85.2773 81.1717 85.5889C81.1717 85.9005 81.1345 86.1767 81.0601 86.4175C80.9858 86.6548 80.8795 86.8548 80.7414 87.0177C80.6069 87.1771 80.4422 87.2992 80.2475 87.3842C80.0527 87.4656 79.8367 87.5064 79.5995 87.5064ZM79.5995 87.108C79.7588 87.108 79.9058 87.0797 80.0403 87.023C80.1749 86.9664 80.29 86.8849 80.3856 86.7787C80.4847 86.6725 80.5608 86.545 80.614 86.3963C80.6671 86.2475 80.6936 86.0811 80.6936 85.897V85.2809C80.6936 85.0967 80.6671 84.9303 80.614 84.7816C80.5608 84.6329 80.4847 84.5054 80.3856 84.3992C80.29 84.2929 80.1749 84.2115 80.0403 84.1548C79.9058 84.0982 79.7588 84.0698 79.5995 84.0698C79.4401 84.0698 79.2932 84.0982 79.1586 84.1548C79.024 84.2115 78.9072 84.2929 78.808 84.3992C78.7124 84.5054 78.6381 84.6329 78.585 84.7816C78.5319 84.9303 78.5053 85.0967 78.5053 85.2809V85.897C78.5053 86.0811 78.5319 86.2475 78.585 86.3963C78.6381 86.545 78.7124 86.6725 78.808 86.7787C78.9072 86.8849 79.024 86.9664 79.1586 87.023C79.2932 87.0797 79.4401 87.108 79.5995 87.108ZM83.939 87.4426V83.7352H84.3851V87.0496H85.9627V87.4426H83.939Z" fill="white"/>
</svg>
