<svg width="84" height="59" viewBox="0 0 84 59" fill="none" xmlns="http://www.w3.org/2000/svg">
<path fill-rule="evenodd" clip-rule="evenodd" d="M45.0844 0.977051H34.4414C34.6138 2.67271 35.007 3.23168 36.4942 3.18779H40.778L40.778 10.1447H40.7641C37.3624 10.0008 36.5766 11.0024 36.5358 14.1009V20.3798H36.5368L40.778 22.7579V22.763L42.9912 23.9991L42.9929 23.9999V21.4711L42.9912 21.4701V12.2934C46.7724 12.2781 48.0512 11.7522 49.0698 10.1591C50.2576 8.38836 50.4035 5.41767 49.0791 3.18779C48.142 1.94253 47.2832 1.05335 45.0844 0.977051ZM44.8837 10.1447C49.083 10.0043 49.2488 3.18779 44.7529 3.18779H42.9912V10.1447H44.8837ZM40.778 12.2936H40.7641C39.2733 12.2883 38.8207 12.6089 38.7489 14.1009V19.0855L40.778 20.2261L40.778 12.2936Z" fill="white"/>
<path d="M3.6813 43.9999V31.6418H9.24064C9.8072 31.6418 10.3147 31.7363 10.7633 31.9251C11.2236 32.1022 11.6131 32.3618 11.9318 32.7041C12.2505 33.0346 12.4924 33.4359 12.6577 33.9081C12.8229 34.3802 12.9056 34.8995 12.9056 35.4661C12.9056 36.0445 12.8229 36.5697 12.6577 37.0418C12.4924 37.5022 12.2505 37.9035 11.9318 38.2458C11.6131 38.5763 11.2236 38.8359 10.7633 39.0248C10.3147 39.2018 9.8072 39.2904 9.24064 39.2904H6.01835V43.9999H3.6813ZM6.01835 37.272H9.02818C9.47671 37.272 9.8308 37.154 10.0905 36.9179C10.3501 36.67 10.48 36.3218 10.48 35.8733V35.0589C10.48 34.6104 10.3501 34.2681 10.0905 34.032C9.8308 33.7959 9.47671 33.6779 9.02818 33.6779H6.01835V37.272ZM17.0991 43.9999V34.7579H19.3654V36.67H19.4539C19.5129 36.4222 19.6014 36.1861 19.7195 35.9618C19.8493 35.7258 20.0145 35.5192 20.2152 35.3422C20.4159 35.1651 20.6519 35.0235 20.9234 34.9173C21.2067 34.811 21.5313 34.7579 21.8972 34.7579H22.3929V36.9002H21.6847C20.9175 36.9002 20.3391 37.0123 19.9496 37.2366C19.5601 37.4609 19.3654 37.8268 19.3654 38.3343V43.9999H17.0991ZM30.0183 44.2123C29.3573 44.2123 28.7613 44.1002 28.2301 43.8759C27.7108 43.6517 27.2623 43.3271 26.8846 42.9022C26.5187 42.4773 26.2354 41.9697 26.0347 41.3795C25.8341 40.7776 25.7337 40.1048 25.7337 39.3612C25.7337 38.6176 25.8341 37.9507 26.0347 37.3605C26.2354 36.7704 26.5187 36.2687 26.8846 35.8556C27.2623 35.4307 27.7108 35.1061 28.2301 34.8818C28.7613 34.6576 29.3573 34.5455 30.0183 34.5455C30.6793 34.5455 31.2754 34.6576 31.8065 34.8818C32.3377 35.1061 32.7862 35.4307 33.1521 35.8556C33.5298 36.2687 33.819 36.7704 34.0196 37.3605C34.2203 37.9507 34.3206 38.6176 34.3206 39.3612C34.3206 40.1048 34.2203 40.7776 34.0196 41.3795C33.819 41.9697 33.5298 42.4773 33.1521 42.9022C32.7862 43.3271 32.3377 43.6517 31.8065 43.8759C31.2754 44.1002 30.6793 44.2123 30.0183 44.2123ZM30.0183 42.3887C30.6203 42.3887 31.0924 42.2058 31.4347 41.8399C31.777 41.474 31.9482 40.9369 31.9482 40.2287V38.5114C31.9482 37.815 31.777 37.2838 31.4347 36.9179C31.0924 36.552 30.6203 36.3691 30.0183 36.3691C29.4282 36.3691 28.9619 36.552 28.6196 36.9179C28.2773 37.2838 28.1062 37.815 28.1062 38.5114V40.2287C28.1062 40.9369 28.2773 41.474 28.6196 41.8399C28.9619 42.2058 29.4282 42.3887 30.0183 42.3887ZM42.537 33.7133V43.9999H40.1999V33.7133H36.6943V31.6418H46.0425V33.7133H42.537ZM52.7819 44.2123C52.0973 44.2123 51.4835 44.1002 50.9406 43.8759C50.4094 43.6399 49.955 43.3153 49.5773 42.9022C49.2114 42.4773 48.9281 41.9697 48.7275 41.3795C48.5268 40.7776 48.4265 40.1048 48.4265 39.3612C48.4265 38.6294 48.5209 37.9684 48.7097 37.3782C48.9104 36.7881 49.1937 36.2864 49.5596 35.8733C49.9255 35.4484 50.374 35.1238 50.9052 34.8995C51.4363 34.6635 52.0383 34.5455 52.7111 34.5455C53.4311 34.5455 54.0566 34.6694 54.5878 34.9173C55.1189 35.1651 55.5557 35.5015 55.8979 35.9264C56.2402 36.3514 56.494 36.8471 56.6593 37.4136C56.8363 37.9684 56.9248 38.5645 56.9248 39.2018V39.9455H50.7812V40.1756C50.7812 40.8484 50.9701 41.3914 51.3478 41.8045C51.7255 42.2058 52.2861 42.4064 53.0297 42.4064C53.5963 42.4064 54.0566 42.2884 54.4107 42.0523C54.7766 41.8163 55.1012 41.5153 55.3845 41.1494L56.6061 42.5127C56.2284 43.0438 55.7091 43.4628 55.0481 43.7697C54.3989 44.0648 53.6435 44.2123 52.7819 44.2123ZM52.7465 36.2451C52.1445 36.2451 51.6665 36.4458 51.3124 36.8471C50.9583 37.2484 50.7812 37.7677 50.7812 38.4051V38.5468H54.5701V38.3874C54.5701 37.75 54.4107 37.2366 54.092 36.8471C53.7852 36.4458 53.3366 36.2451 52.7465 36.2451ZM64.9561 44.2123C64.2715 44.2123 63.6636 44.1002 63.1325 43.8759C62.6013 43.6517 62.1528 43.3271 61.7869 42.9022C61.4328 42.4773 61.1613 41.9697 60.9725 41.3795C60.7836 40.7776 60.6892 40.1048 60.6892 39.3612C60.6892 38.6176 60.7836 37.9507 60.9725 37.3605C61.1613 36.7704 61.4328 36.2687 61.7869 35.8556C62.1528 35.4307 62.6013 35.1061 63.1325 34.8818C63.6636 34.6576 64.2715 34.5455 64.9561 34.5455C65.8885 34.5455 66.6558 34.752 67.2577 35.1651C67.8715 35.5782 68.3141 36.1507 68.5856 36.8825L66.7266 37.7146C66.6203 37.3251 66.4197 37.0064 66.1246 36.7586C65.8413 36.4989 65.4518 36.3691 64.9561 36.3691C64.3187 36.3691 63.8407 36.5697 63.522 36.971C63.2151 37.3723 63.0617 37.8976 63.0617 38.5468V40.2287C63.0617 40.8779 63.2151 41.4032 63.522 41.8045C63.8407 42.194 64.3187 42.3887 64.9561 42.3887C65.499 42.3887 65.9181 42.253 66.2131 41.9815C66.5082 41.6982 66.7384 41.35 66.9036 40.9369L68.6387 41.7691C68.3318 42.5835 67.8656 43.1973 67.24 43.6104C66.6144 44.0117 65.8531 44.2123 64.9561 44.2123ZM72.7763 30.8982H75.0425V36.2982H75.131C75.3199 35.8025 75.615 35.3894 76.0163 35.0589C76.4294 34.7166 76.9959 34.5455 77.7159 34.5455C78.672 34.5455 79.4038 34.8582 79.9113 35.4838C80.4189 36.1094 80.6727 37.0005 80.6727 38.1573V43.9999H78.4064V38.3874C78.4064 37.7264 78.2884 37.2307 78.0523 36.9002C77.8163 36.5697 77.4268 36.4045 76.8838 36.4045C76.6477 36.4045 76.4176 36.4399 76.1933 36.5107C75.9809 36.5697 75.7861 36.6641 75.6091 36.794C75.4438 36.912 75.3081 37.0655 75.2018 37.2543C75.0956 37.4314 75.0425 37.6438 75.0425 37.8917V43.9999H72.7763V30.8982Z" fill="white"/>
<path d="M21.6955 55.178L21.1696 55.7623V56.9999H20.7235V53.2925H21.1696V55.263H21.1856L21.7167 54.6203L22.8374 53.2925H23.3845L22.0035 54.8806L23.4801 56.9999H22.9277L21.6955 55.178ZM26.0551 56.9999V53.2925H28.3177V53.6855H26.5012V54.9284H28.2115V55.3215H26.5012V56.6068H28.3177V56.9999H26.0551ZM31.1169 56.9999V53.2925H33.3796V53.6855H31.5631V54.9284H33.2734V55.3215H31.5631V56.6068H33.3796V56.9999H31.1169ZM36.1788 56.9999V53.2925H37.6554C37.9883 53.2925 38.2432 53.3881 38.4203 53.5793C38.6008 53.767 38.6911 54.0255 38.6911 54.3548C38.6911 54.6841 38.6008 54.9443 38.4203 55.1355C38.2432 55.3232 37.9883 55.4171 37.6554 55.4171H36.625V56.9999H36.1788ZM36.625 55.024H37.6554C37.8325 55.024 37.9688 54.978 38.0644 54.8859C38.1635 54.7938 38.2131 54.6628 38.2131 54.4929V54.2167C38.2131 54.0467 38.1635 53.9157 38.0644 53.8236C37.9688 53.7315 37.8325 53.6855 37.6554 53.6855H36.625V55.024ZM45.8923 57.0636C45.4214 57.0636 45.0549 56.9043 44.7928 56.5856C44.5308 56.2634 44.3998 55.7906 44.3998 55.1674C44.3998 54.5442 44.5308 54.0662 44.7928 53.7333C45.0549 53.3969 45.4214 53.2287 45.8923 53.2287C46.2039 53.2287 46.4642 53.2995 46.6731 53.4412C46.8855 53.5828 47.0502 53.7829 47.1671 54.0414L46.8059 54.2592C46.7315 54.0679 46.6182 53.9157 46.4659 53.8024C46.3137 53.6855 46.1225 53.6271 45.8923 53.6271C45.733 53.6271 45.5895 53.6572 45.4621 53.7174C45.3381 53.7776 45.2319 53.8643 45.1434 53.9776C45.0584 54.0874 44.9929 54.2202 44.9469 54.376C44.9008 54.5283 44.8778 54.7 44.8778 54.8912V55.4436C44.8778 55.826 44.9663 56.1253 45.1434 56.3413C45.3204 56.5573 45.5701 56.6653 45.8923 56.6653C46.1295 56.6653 46.3278 56.6051 46.4872 56.4847C46.6465 56.3607 46.7634 56.1978 46.8377 55.996L47.1936 56.2191C47.0768 56.4811 46.9086 56.6883 46.689 56.8405C46.4695 56.9893 46.2039 57.0636 45.8923 57.0636ZM51.1687 57.0636C50.9279 57.0636 50.7102 57.0229 50.5154 56.9415C50.3242 56.8565 50.1595 56.7343 50.0214 56.575C49.8869 56.4121 49.7824 56.212 49.7081 55.9748C49.6337 55.734 49.5965 55.4578 49.5965 55.1462C49.5965 54.8346 49.6337 54.5601 49.7081 54.3229C49.7824 54.0856 49.8869 53.8856 50.0214 53.7227C50.1595 53.5598 50.3242 53.4376 50.5154 53.3562C50.7102 53.2712 50.9279 53.2287 51.1687 53.2287C51.406 53.2287 51.622 53.2712 51.8167 53.3562C52.0115 53.4376 52.1761 53.5598 52.3107 53.7227C52.4488 53.8856 52.555 54.0856 52.6294 54.3229C52.7037 54.5601 52.7409 54.8346 52.7409 55.1462C52.7409 55.4578 52.7037 55.734 52.6294 55.9748C52.555 56.212 52.4488 56.4121 52.3107 56.575C52.1761 56.7343 52.0115 56.8565 51.8167 56.9415C51.622 57.0229 51.406 57.0636 51.1687 57.0636ZM51.1687 56.6653C51.3281 56.6653 51.475 56.6369 51.6096 56.5803C51.7441 56.5236 51.8592 56.4422 51.9548 56.3359C52.054 56.2297 52.1301 56.1022 52.1832 55.9535C52.2363 55.8048 52.2629 55.6384 52.2629 55.4542V54.8381C52.2629 54.654 52.2363 54.4875 52.1832 54.3388C52.1301 54.1901 52.054 54.0626 51.9548 53.9564C51.8592 53.8502 51.7441 53.7687 51.6096 53.7121C51.475 53.6554 51.3281 53.6271 51.1687 53.6271C51.0094 53.6271 50.8624 53.6554 50.7279 53.7121C50.5933 53.7687 50.4765 53.8502 50.3773 53.9564C50.2817 54.0626 50.2073 54.1901 50.1542 54.3388C50.1011 54.4875 50.0746 54.654 50.0746 54.8381V55.4542C50.0746 55.6384 50.1011 55.8048 50.1542 55.9535C50.2073 56.1022 50.2817 56.2297 50.3773 56.3359C50.4765 56.4422 50.5933 56.5236 50.7279 56.5803C50.8624 56.6369 51.0094 56.6653 51.1687 56.6653ZM56.8945 57.0636C56.6537 57.0636 56.436 57.0229 56.2412 56.9415C56.05 56.8565 55.8853 56.7343 55.7472 56.575C55.6127 56.4121 55.5082 56.212 55.4339 55.9748C55.3595 55.734 55.3223 55.4578 55.3223 55.1462C55.3223 54.8346 55.3595 54.5601 55.4339 54.3229C55.5082 54.0856 55.6127 53.8856 55.7472 53.7227C55.8853 53.5598 56.05 53.4376 56.2412 53.3562C56.436 53.2712 56.6537 53.2287 56.8945 53.2287C57.1318 53.2287 57.3478 53.2712 57.5425 53.3562C57.7373 53.4376 57.9019 53.5598 58.0365 53.7227C58.1746 53.8856 58.2808 54.0856 58.3552 54.3229C58.4295 54.5601 58.4667 54.8346 58.4667 55.1462C58.4667 55.4578 58.4295 55.734 58.3552 55.9748C58.2808 56.212 58.1746 56.4121 58.0365 56.575C57.9019 56.7343 57.7373 56.8565 57.5425 56.9415C57.3478 57.0229 57.1318 57.0636 56.8945 57.0636ZM56.8945 56.6653C57.0539 56.6653 57.2008 56.6369 57.3354 56.5803C57.4699 56.5236 57.585 56.4422 57.6806 56.3359C57.7798 56.2297 57.8559 56.1022 57.909 55.9535C57.9621 55.8048 57.9887 55.6384 57.9887 55.4542V54.8381C57.9887 54.654 57.9621 54.4875 57.909 54.3388C57.8559 54.1901 57.7798 54.0626 57.6806 53.9564C57.585 53.8502 57.4699 53.7687 57.3354 53.7121C57.2008 53.6554 57.0539 53.6271 56.8945 53.6271C56.7352 53.6271 56.5882 53.6554 56.4537 53.7121C56.3191 53.7687 56.2023 53.8502 56.1031 53.9564C56.0075 54.0626 55.9331 54.1901 55.88 54.3388C55.8269 54.4875 55.8004 54.654 55.8004 54.8381V55.4542C55.8004 55.6384 55.8269 55.8048 55.88 55.9535C55.9331 56.1022 56.0075 56.2297 56.1031 56.3359C56.2023 56.4422 56.3191 56.5236 56.4537 56.5803C56.5882 56.6369 56.7352 56.6653 56.8945 56.6653ZM61.234 56.9999V53.2925H61.6802V56.6068H63.2577V56.9999H61.234Z" fill="white"/>
</svg>
