<svg width="36" height="35" viewBox="0 0 36 35" fill="none" xmlns="http://www.w3.org/2000/svg">
<path d="M16.8627 3.9939L26.6424 7.04923C26.9152 7.13438 27.1536 7.30449 27.3228 7.53472C27.4921 7.76495 27.5833 8.04325 27.5832 8.32899V10.6942H30.2633C30.6187 10.6942 30.9595 10.8354 31.2109 11.0867C31.4622 11.338 31.6034 11.6789 31.6034 12.0343V22.7547C31.6034 23.1101 31.4622 23.451 31.2109 23.7023C30.9595 23.9536 30.6187 24.0948 30.2633 24.0948L25.9483 24.0961C25.4297 24.7796 24.7999 25.3826 24.0722 25.8784L16.8627 30.7951L9.65317 25.8798C8.5711 25.142 7.68563 24.1511 7.07374 22.9932C6.46185 21.8352 6.14208 20.5454 6.14221 19.2357V8.32899C6.14237 8.04348 6.23372 7.76548 6.40294 7.53552C6.57215 7.30556 6.81039 7.13566 7.08293 7.05057L16.8627 3.9939ZM16.8627 6.79998L8.82233 9.31393V19.2357C8.82214 20.0562 9.01028 20.8657 9.37225 21.6019C9.73421 22.3382 10.2604 22.9815 10.9101 23.4824L11.1634 23.6646L16.8627 27.5508L21.9308 24.0948H15.5226C15.1672 24.0948 14.8264 23.9536 14.5751 23.7023C14.3238 23.451 14.1826 23.1101 14.1826 22.7547V12.0343C14.1826 11.6789 14.3238 11.338 14.5751 11.0867C14.8264 10.8354 15.1672 10.6942 15.5226 10.6942H24.903V9.31393L16.8627 6.79998ZM16.8627 17.3945V21.4147H28.9232V17.3945H16.8627ZM16.8627 14.7144H28.9232V13.3743H16.8627V14.7144Z" fill="black"/>
</svg>
