<svg width="114" height="30" viewBox="0 0 114 30" fill="none" xmlns="http://www.w3.org/2000/svg">
<path d="M14.7794 19.6813C16.0794 19.6813 17.3263 19.1649 18.2456 18.2456C19.1649 17.3263 19.6813 16.0795 19.6813 14.7794C19.6813 13.4793 19.1649 12.2325 18.2456 11.3132C17.3263 10.3939 16.0794 9.87744 14.7794 9.87744C13.4793 9.87744 12.2324 10.3939 11.3131 11.3132C10.3939 12.2325 9.8774 13.4793 9.8774 14.7794C9.8774 16.0795 10.3939 17.3263 11.3131 18.2456C12.2324 19.1649 13.4793 19.6813 14.7794 19.6813Z" stroke="black" stroke-width="1.87497" stroke-linecap="round" stroke-linejoin="round"/>
<path d="M3.74995 19.6813V9.87744C3.74995 8.25234 4.39552 6.6938 5.54463 5.54469C6.69375 4.39557 8.25229 3.75 9.87739 3.75H19.6813C21.3064 3.75 22.8649 4.39557 24.014 5.54469C25.1632 6.6938 25.8087 8.25234 25.8087 9.87744V19.6813C25.8087 21.3064 25.1632 22.865 24.014 24.0141C22.8649 25.1632 21.3064 25.8088 19.6813 25.8088H9.87739C8.25229 25.8088 6.69375 25.1632 5.54463 24.0141C4.39552 22.865 3.74995 21.3064 3.74995 19.6813Z" stroke="black" stroke-width="1.87497"/>
<path d="M21.5195 8.05237L21.5327 8.03784" stroke="black" stroke-width="1.87497" stroke-linecap="round" stroke-linejoin="round"/>
<path d="M66.3747 3.97046H46.7423C46.4206 3.97046 46.112 4.09828 45.8844 4.32581C45.6569 4.55333 45.5291 4.86192 45.5291 5.18369V24.816C45.5291 25.1378 45.6569 25.4464 45.8844 25.6739C46.112 25.9014 46.4206 26.0292 46.7423 26.0292H57.3085V17.4815H54.4408V14.1726H57.3085V11.691C57.2491 11.1084 57.3179 10.5199 57.51 9.96663C57.7022 9.41341 58.013 8.90892 58.4208 8.48855C58.8285 8.06818 59.3233 7.74212 59.8704 7.53322C60.4175 7.32432 61.0037 7.23764 61.5879 7.27928C62.4463 7.27399 63.3044 7.31818 64.1577 7.41163V10.3896H62.4041C61.0144 10.3896 60.7497 11.0513 60.7497 12.0109V14.1396H64.0585L63.6283 17.4484H60.7497V26.0292H66.3747C66.534 26.0292 66.6917 25.9979 66.8389 25.9369C66.9861 25.8759 67.1199 25.7866 67.2325 25.6739C67.3452 25.5612 67.4346 25.4275 67.4955 25.2803C67.5565 25.1331 67.5879 24.9753 67.5879 24.816V5.18369C67.5879 5.02437 67.5565 4.8666 67.4955 4.71941C67.4346 4.57221 67.3452 4.43847 67.2325 4.32581C67.1199 4.21315 66.9861 4.12378 66.8389 4.06281C66.6917 4.00184 66.534 3.97046 66.3747 3.97046Z" fill="black"/>
<path d="M97.087 3.75C95.6386 3.75008 94.2044 4.03544 92.8663 4.5898C91.5282 5.14415 90.3124 5.95664 89.2882 6.98087C88.2641 8.0051 87.4518 9.22102 86.8976 10.5592C86.3434 11.8974 86.0582 13.3316 86.0582 14.78C86.0583 16.2284 86.3437 17.6626 86.898 19.0007C87.4524 20.3388 88.2649 21.5547 89.2891 22.5788C90.3133 23.6029 91.5293 24.4153 92.8674 24.9695C94.2056 25.5237 95.6398 25.8089 97.0883 25.8088C100.013 25.8086 102.819 24.6465 104.887 22.5779C106.955 20.5094 108.117 17.704 108.117 14.7788C108.117 11.8536 106.955 9.0483 104.886 6.98C102.818 4.9117 100.012 3.74984 97.087 3.75ZM99.0232 7.87967H100.004V11.1638C100.004 11.3721 100.102 11.3721 100.138 11.3721C100.285 11.3721 100.506 11.2128 100.616 11.1025V7.86741H101.597V12.2054H100.616V11.8255C100.481 11.9481 100.347 12.0461 100.212 12.1196C100.028 12.2177 99.8565 12.2544 99.6849 12.2544C99.591 12.2589 99.4972 12.2426 99.4104 12.2066C99.3235 12.1705 99.2457 12.1157 99.1825 12.0461C99.0722 11.9113 99.0232 11.703 99.0232 11.4456V7.87967ZM95.8984 9.01931C95.8984 8.34533 96.4498 7.79389 97.1238 7.79389C97.7978 7.79389 98.3492 8.34533 98.3492 9.01931V11.1025C98.3492 11.7765 97.7978 12.3279 97.1238 12.3279C96.4498 12.3279 95.8984 11.7765 95.8984 11.1025V9.01931ZM93.3495 6.38465L93.9377 8.54139L94.5382 6.38465H95.6533L94.5014 9.79132V12.2054H93.4108V9.79132L92.2344 6.38465H93.3495ZM103.03 21.7514C102.405 22.3641 97.1115 22.3764 97.1115 22.3764C97.1115 22.3764 91.83 22.3641 91.1928 21.7514C90.5678 21.1387 90.5678 18.0874 90.5678 18.0629C90.5678 18.0507 90.5678 14.9994 91.1928 14.3744C91.8177 13.7617 97.1115 13.7494 97.1115 13.7494C97.1115 13.7494 102.393 13.7617 103.03 14.3744C103.655 14.9871 103.668 18.0384 103.668 18.0629C103.668 18.0629 103.668 21.1265 103.03 21.7514Z" fill="black"/>
<path d="M91.5688 16.0822H92.4813V20.5283H93.3563V16.0822H94.2687V15.3309H91.5688V16.0822ZM96.1812 19.6046C96.0312 19.777 95.5187 20.1219 95.5187 19.6292V16.6857H94.7437V19.9002C94.7437 20.8732 95.7312 20.6145 96.1937 20.1096V20.5283H96.9687V16.6857H96.1937V19.6046H96.1812ZM99.0687 16.6611C98.6187 16.6611 98.3312 16.9936 98.3312 16.9936V15.3186H97.5437V20.5283H98.3312V20.2327C98.3312 20.2327 98.5937 20.5776 99.0687 20.5776C99.4812 20.5776 99.7937 20.2204 99.7937 19.7278V17.5971C99.7937 17.0182 99.5187 16.6611 99.0687 16.6611ZM98.9812 19.6292C98.9812 19.9125 98.7812 20.048 98.5187 19.9371C98.4478 19.9045 98.3841 19.8585 98.3312 19.8017V17.4123C98.3812 17.3631 98.4437 17.3261 98.4937 17.2892C98.7687 17.1537 98.9812 17.3631 98.9812 17.6463V19.6292ZM101.869 19.4322C101.869 19.7278 101.706 19.9248 101.519 19.9371C101.319 19.9495 101.119 19.7894 101.119 19.4322V18.7055H102.606V17.7202C102.61 17.5702 102.583 17.421 102.527 17.2813C102.471 17.1417 102.388 17.0145 102.281 16.9074C102.066 16.7141 101.785 16.6085 101.494 16.6118C101.219 16.6118 100.931 16.698 100.706 16.8704C100.469 17.0552 100.319 17.3384 100.319 17.7202V19.4445C100.319 19.7894 100.431 20.0603 100.606 20.2574C100.819 20.4791 101.106 20.6022 101.406 20.6145C101.769 20.6269 102.156 20.4791 102.381 20.1712C102.519 19.9864 102.606 19.7401 102.606 19.4445V19.2474H101.869V19.4322ZM101.119 17.7202C101.119 17.5109 101.244 17.2646 101.481 17.2646C101.719 17.2646 101.869 17.4862 101.869 17.7202V18.1144H101.119V17.7202Z" fill="black"/>
<path d="M97.0751 11.5838C97.2876 11.5838 97.3876 11.4606 97.4001 11.2636V8.92352C97.4001 8.76341 97.2376 8.62793 97.0876 8.62793C96.9376 8.62793 96.7751 8.75109 96.7751 8.92352V11.2636C96.7751 11.4483 96.8626 11.5715 97.0751 11.5838Z" fill="black"/>
</svg>
