<svg width="36" height="36" viewBox="0 0 36 36" fill="none" xmlns="http://www.w3.org/2000/svg">
<path d="M4.5 18.3945H18V20.582H4.5V18.3945ZM2.25 12.9258H13.5V15.1133H2.25V12.9258Z" fill="white"/>
<path d="M33.6589 19.0573L30.2839 11.4011C30.1973 11.2043 30.0531 11.0366 29.8693 10.9188C29.6855 10.8009 29.4702 10.7382 29.25 10.7383H25.875V8.55078C25.875 8.2607 25.7565 7.9825 25.5455 7.77738C25.3345 7.57227 25.0484 7.45703 24.75 7.45703H6.75V9.64453H23.625V23.3777C23.1124 23.6671 22.6637 24.0523 22.305 24.5111C21.9462 24.9698 21.6845 25.4931 21.5347 26.0508H14.4652C14.1914 25.0197 13.5402 24.1212 12.6337 23.5236C11.7272 22.9259 10.6277 22.6702 9.54112 22.8044C8.45458 22.9386 7.45567 23.4534 6.73164 24.2524C6.0076 25.0514 5.60814 26.0797 5.60814 27.1445C5.60814 28.2094 6.0076 29.2377 6.73164 30.0367C7.45567 30.8357 8.45458 31.3505 9.54112 31.4847C10.6277 31.6188 11.7272 31.3631 12.6337 30.7655C13.5402 30.1679 14.1914 29.2693 14.4652 28.2383H21.5347C21.7795 29.177 22.3392 30.0095 23.1252 30.6042C23.9113 31.199 24.879 31.5219 25.875 31.5219C26.871 31.5219 27.8387 31.199 28.6247 30.6042C29.4108 30.0095 29.9705 29.177 30.2152 28.2383H32.625C32.9234 28.2383 33.2095 28.123 33.4205 27.9179C33.6315 27.7128 33.75 27.4346 33.75 27.1445V19.4883C33.7501 19.3401 33.719 19.1935 33.6589 19.0573ZM10.125 29.332C9.67999 29.332 9.24498 29.2037 8.87497 28.9634C8.50496 28.723 8.21657 28.3814 8.04627 27.9817C7.87597 27.5819 7.83142 27.1421 7.91823 26.7178C8.00505 26.2934 8.21934 25.9037 8.53401 25.5977C8.84868 25.2918 9.24959 25.0835 9.68605 24.9991C10.1225 24.9147 10.5749 24.958 10.986 25.1235C11.3972 25.2891 11.7486 25.5695 11.9958 25.9292C12.243 26.289 12.375 26.7119 12.375 27.1445C12.3744 27.7245 12.1372 28.2806 11.7153 28.6907C11.2935 29.1008 10.7216 29.3315 10.125 29.332ZM25.875 12.9258H28.5075L30.9195 18.3945H25.875V12.9258ZM25.875 29.332C25.43 29.332 24.995 29.2037 24.625 28.9634C24.255 28.723 23.9666 28.3814 23.7963 27.9817C23.626 27.5819 23.5814 27.1421 23.6682 26.7178C23.755 26.2934 23.9693 25.9037 24.284 25.5977C24.5987 25.2918 24.9996 25.0835 25.436 24.9991C25.8725 24.9147 26.3249 24.958 26.736 25.1235C27.1472 25.2891 27.4986 25.5695 27.7458 25.9292C27.993 26.289 28.125 26.7119 28.125 27.1445C28.1244 27.7245 27.8872 28.2806 27.4653 28.6907C27.0435 29.1008 26.4716 29.3315 25.875 29.332ZM31.5 26.0508H30.2152C29.9674 25.1139 29.4069 24.2835 28.6214 23.6897C27.8359 23.0958 26.87 22.7722 25.875 22.7695V20.582H31.5V26.0508Z" fill="white"/>
</svg>
