<svg width="31" height="34" viewBox="0 0 31 34" fill="none" xmlns="http://www.w3.org/2000/svg">
<path d="M15.3322 4.99976C13.7563 4.99984 12.1959 5.31032 10.74 5.91346C9.28413 6.51659 7.96131 7.40058 6.84707 8.51495C5.73283 9.62931 4.84899 10.9522 4.24601 12.4082C3.64304 13.8641 3.33274 15.4246 3.33282 17.0004C3.33291 18.5763 3.64339 20.1367 4.24653 21.5926C4.84966 23.0484 5.73365 24.3713 6.84801 25.4855C7.96238 26.5998 9.2853 27.4836 10.7412 28.0866C12.1972 28.6895 13.7576 28.9998 15.3335 28.9998C18.5161 28.9996 21.5683 27.7351 23.8186 25.4846C26.0689 23.234 27.333 20.1817 27.3328 16.9991C27.3326 13.8165 26.0682 10.7643 23.8176 8.514C21.5671 6.26369 18.5148 4.99958 15.3322 4.99976ZM17.4387 9.49284H18.5053V13.066C18.5053 13.2926 18.612 13.2926 18.652 13.2926C18.812 13.2926 19.052 13.1193 19.1719 12.9993V9.47951H20.2386V14.1992H19.1719V13.7859C19.0253 13.9193 18.8786 14.0259 18.732 14.1059C18.532 14.2126 18.3453 14.2526 18.1587 14.2526C18.0565 14.2575 17.9545 14.2397 17.86 14.2005C17.7654 14.1613 17.6808 14.1017 17.612 14.0259C17.492 13.8793 17.4387 13.6526 17.4387 13.3726V9.49284ZM14.0389 10.7328C14.0389 9.99948 14.6389 9.39951 15.3722 9.39951C16.1054 9.39951 16.7054 9.99948 16.7054 10.7328V12.9993C16.7054 13.7326 16.1054 14.3326 15.3722 14.3326C14.6389 14.3326 14.0389 13.7326 14.0389 12.9993V10.7328ZM11.2657 7.86626L11.9057 10.2128L12.559 7.86626H13.7722L12.519 11.5727V14.1992H11.3324V11.5727L10.0525 7.86626H11.2657ZM21.7985 24.5853C21.1185 25.252 15.3588 25.2653 15.3588 25.2653C15.3588 25.2653 9.61247 25.252 8.91918 24.5853C8.23922 23.9187 8.23922 20.5989 8.23922 20.5722C8.23922 20.5589 8.23922 17.2391 8.91918 16.5591C9.59914 15.8925 15.3588 15.8792 15.3588 15.8792C15.3588 15.8792 21.1052 15.8925 21.7985 16.5591C22.4784 17.2257 22.4918 20.5456 22.4918 20.5722C22.4918 20.5722 22.4918 23.9054 21.7985 24.5853Z" fill="white"/>
<path d="M9.8139 17.8395H10.7264V22.728H11.6014V17.8395H12.5139V17.0134H9.8139V17.8395ZM14.4264 21.7124C14.2764 21.9019 13.7639 22.2811 13.7639 21.7394V18.503H12.9889V22.0374C12.9889 23.1071 13.9764 22.8228 14.4389 22.2676V22.728H15.2139V18.503H14.4389V21.7124H14.4264ZM17.3139 18.4759C16.8639 18.4759 16.5764 18.8415 16.5764 18.8415V16.9999H15.7889V22.728H16.5764V22.403C16.5764 22.403 16.8389 22.7822 17.3139 22.7822C17.7264 22.7822 18.0389 22.3894 18.0389 21.8478V19.5051C18.0389 18.8686 17.7639 18.4759 17.3139 18.4759ZM17.2264 21.7394C17.2264 22.0509 17.0264 22.1999 16.7639 22.078C16.693 22.0421 16.6293 21.9915 16.5764 21.929V19.302C16.6264 19.2478 16.6889 19.2072 16.7389 19.1665C17.0139 19.0176 17.2264 19.2478 17.2264 19.5592V21.7394ZM20.1139 21.5228C20.1139 21.8478 19.9514 22.0644 19.7639 22.078C19.5639 22.0915 19.3639 21.9155 19.3639 21.5228V20.7238H20.8514V19.6405C20.8552 19.4755 20.8284 19.3114 20.7726 19.1579C20.7168 19.0044 20.6331 18.8646 20.5264 18.7467C20.3114 18.5343 20.0299 18.4181 19.7389 18.4217C19.4639 18.4217 19.1764 18.5165 18.9514 18.7061C18.7139 18.9092 18.5639 19.2207 18.5639 19.6405V21.5363C18.5639 21.9155 18.6764 22.2134 18.8514 22.4301C19.0639 22.6738 19.3514 22.8092 19.6514 22.8228C20.0139 22.8363 20.4014 22.6738 20.6264 22.3353C20.7639 22.1322 20.8514 21.8613 20.8514 21.5363V21.3197H20.1139V21.5228ZM19.3639 19.6405C19.3639 19.4103 19.4889 19.1395 19.7264 19.1395C19.9639 19.1395 20.1139 19.3832 20.1139 19.6405V20.0738H19.3639V19.6405Z" fill="white"/>
<path d="M15.32 13.4098C15.5325 13.4098 15.6325 13.2744 15.645 13.0577V10.4848C15.645 10.3087 15.4825 10.1598 15.3325 10.1598C15.1825 10.1598 15.02 10.2952 15.02 10.4848V13.0577C15.02 13.2608 15.1075 13.3962 15.32 13.4098Z" fill="white"/>
</svg>
