<svg width="27" height="28" viewBox="0 0 27 28" fill="none" xmlns="http://www.w3.org/2000/svg">
<path d="M13.5 0.5C6.04248 0.5 3.05176e-05 6.54245 3.05176e-05 14C3.05176e-05 21.4575 6.04248 27.5 13.5 27.5C20.9575 27.5 27 21.4575 27 14C27 6.54245 20.9575 0.5 13.5 0.5ZM8.37725 19.8996C8.29441 20.0409 8.17583 20.1579 8.03343 20.2388C7.89103 20.3197 7.72983 20.3618 7.56605 20.3606C7.39912 20.3621 7.23509 20.317 7.09234 20.2305C6.98606 20.1689 6.89299 20.0869 6.81847 19.9893C6.74395 19.8916 6.68944 19.7802 6.65808 19.6614C6.62673 19.5427 6.61913 19.4189 6.63574 19.2972C6.65234 19.1754 6.69282 19.0582 6.75484 18.9522L7.67634 17.4202C7.7229 17.3411 7.78934 17.2756 7.86906 17.2301C7.94877 17.1847 8.03899 17.1608 8.13076 17.161H8.26696C8.93533 17.161 9.40301 17.563 9.53921 17.9523L8.37725 19.8996ZM16.1789 16.8862L10.1443 16.8928H6.13348C6.00729 16.8934 5.88231 16.8683 5.76611 16.819C5.64992 16.7698 5.54493 16.6975 5.45752 16.6065C5.37011 16.5155 5.3021 16.4077 5.25762 16.2896C5.21313 16.1715 5.1931 16.0456 5.19873 15.9195C5.21801 15.4133 5.65978 15.03 6.16301 15.03H9.07033L12.517 9.16289L11.4009 7.26144C11.1496 6.82812 11.2611 6.25678 11.692 5.98437C11.7982 5.91566 11.9172 5.86915 12.0419 5.84762C12.1666 5.8261 12.2943 5.83001 12.4174 5.85911C12.5406 5.88822 12.6565 5.94192 12.7584 6.01699C12.8602 6.09206 12.9458 6.18695 13.01 6.29595L13.6067 7.31508H13.6133L14.2106 6.29595C14.2749 6.18752 14.3603 6.09314 14.4619 6.01844C14.5634 5.94375 14.679 5.89027 14.8017 5.86119C14.9243 5.83211 15.0516 5.82803 15.1759 5.8492C15.3001 5.87036 15.4189 5.91633 15.525 5.98437C15.9535 6.25678 16.0638 6.82812 15.8107 7.26325L14.6945 9.1647L13.6097 11.0143L11.2538 15.0318V15.0384H14.7259C15.161 15.0384 15.7064 15.2722 15.927 15.6483L15.9463 15.6875C16.1409 16.0184 16.2512 16.2456 16.2512 16.5764C16.2481 16.6839 16.2241 16.7897 16.1807 16.888L16.1789 16.8862ZM20.8647 16.8928H19.2309V16.8995L20.4254 18.9311C20.5538 19.1451 20.5932 19.4009 20.5349 19.6436C20.4766 19.8863 20.3254 20.0964 20.1138 20.2287C19.9671 20.3181 19.7986 20.3654 19.6268 20.3655C19.4635 20.3654 19.3029 20.3231 19.1608 20.2426C19.0187 20.1621 18.8997 20.0462 18.8156 19.9062L17.0504 16.9013L15.9535 15.033L14.5384 12.6138C14.3335 12.2684 14.2221 11.8755 14.2152 11.4739C14.2083 11.0723 14.3062 10.6759 14.4993 10.3236C14.7789 9.83006 14.9928 9.70048 14.9928 9.70048L18.1406 15.0245H20.8473C21.3535 15.0245 21.788 15.4139 21.8115 15.9135C21.8164 16.0405 21.7956 16.1672 21.7502 16.286C21.7049 16.4047 21.636 16.5131 21.5478 16.6046C21.4595 16.6961 21.3537 16.7687 21.2366 16.8183C21.1195 16.8678 20.9937 16.8932 20.8665 16.8928H20.8647Z" fill="black"/>
</svg>
