<svg width="20" height="21" viewBox="0 0 20 21" fill="none" xmlns="http://www.w3.org/2000/svg">
<path d="M19.5378 4.76C19.5027 4.71779 19.4587 4.68382 19.4089 4.66049C19.3592 4.63717 19.3049 4.62505 19.25 4.625H3.81312L3.29937 1.79844C3.25217 1.53923 3.11548 1.30481 2.91315 1.13605C2.71081 0.967295 2.45566 0.874908 2.19219 0.875H0.5C0.400544 0.875 0.305161 0.914509 0.234835 0.984835C0.164509 1.05516 0.125 1.15054 0.125 1.25C0.125 1.34946 0.164509 1.44484 0.234835 1.51517C0.305161 1.58549 0.400544 1.625 0.5 1.625H2.1875C2.2763 1.62355 2.36272 1.65366 2.4314 1.70997C2.50007 1.76629 2.54653 1.84514 2.5625 1.9325L4.95312 15.0856C5.03677 15.543 5.28736 15.9529 5.65625 16.2359C5.26943 16.4853 4.96836 16.8472 4.79364 17.2729C4.61893 17.6987 4.57897 18.1678 4.67915 18.6169C4.77933 19.0661 5.01483 19.4738 5.3539 19.7849C5.69297 20.0961 6.1193 20.2958 6.57541 20.3571C7.03151 20.4184 7.49544 20.3384 7.90465 20.1278C8.31386 19.9173 8.64866 19.5863 8.86391 19.1795C9.07916 18.7728 9.1645 18.3098 9.10842 17.853C9.05235 17.3962 8.85756 16.9676 8.55031 16.625H14.1997C13.8562 17.009 13.6549 17.4994 13.6295 18.014C13.6041 18.5286 13.756 19.0364 14.06 19.4524C14.364 19.8684 14.8015 20.1675 15.2995 20.2997C15.7975 20.4319 16.3258 20.3891 16.7961 20.1786C17.2664 19.9681 17.6501 19.6025 17.8833 19.143C18.1164 18.6835 18.1847 18.1579 18.0769 17.6541C17.9691 17.1503 17.6916 16.6987 17.2908 16.3749C16.89 16.0511 16.3902 15.8746 15.875 15.875H6.79719C6.53387 15.8749 6.27895 15.7824 6.07681 15.6136C5.87466 15.4449 5.73811 15.2106 5.69094 14.9516L5.31594 12.875H16.6344C17.0735 12.8751 17.4987 12.721 17.8359 12.4397C18.173 12.1584 18.4008 11.7676 18.4794 11.3356L19.6194 5.0675C19.6292 5.0134 19.6269 4.95781 19.6128 4.90467C19.5987 4.85153 19.5731 4.80214 19.5378 4.76ZM8.375 18.125C8.375 18.4217 8.28703 18.7117 8.1222 18.9584C7.95738 19.205 7.72311 19.3973 7.44902 19.5108C7.17494 19.6244 6.87334 19.6541 6.58236 19.5962C6.29139 19.5383 6.02412 19.3954 5.81434 19.1857C5.60456 18.9759 5.4617 18.7086 5.40382 18.4176C5.34594 18.1267 5.37565 17.8251 5.48918 17.551C5.60271 17.2769 5.79497 17.0426 6.04164 16.8778C6.28832 16.713 6.57833 16.625 6.875 16.625C7.27282 16.625 7.65435 16.783 7.93566 17.0643C8.21696 17.3456 8.375 17.7272 8.375 18.125ZM17.375 18.125C17.375 18.4217 17.287 18.7117 17.1222 18.9584C16.9574 19.205 16.7231 19.3973 16.449 19.5108C16.1749 19.6244 15.8733 19.6541 15.5824 19.5962C15.2914 19.5383 15.0241 19.3954 14.8143 19.1857C14.6046 18.9759 14.4617 18.7086 14.4038 18.4176C14.3459 18.1267 14.3756 17.8251 14.4892 17.551C14.6027 17.2769 14.795 17.0426 15.0416 16.8778C15.2883 16.713 15.5783 16.625 15.875 16.625C16.2728 16.625 16.6544 16.783 16.9357 17.0643C17.217 17.3456 17.375 17.7272 17.375 18.125ZM17.7416 11.2016C17.6944 11.4608 17.5577 11.6952 17.3553 11.8639C17.153 12.0327 16.8978 12.1251 16.6344 12.125H5.17625L3.94906 5.375H18.8009L17.7416 11.2016Z" fill="white"/>
</svg>
