<svg width="152" height="90" viewBox="0 0 152 90" fill="none" xmlns="http://www.w3.org/2000/svg">
<path fill-rule="evenodd" clip-rule="evenodd" d="M18.9298 28.024H3.23462C3.48887 30.5246 4.06864 31.349 6.26186 31.2842H12.5793L12.5793 41.5436H12.5587C7.54223 41.3313 6.38338 42.8085 6.32318 47.3779V56.6374H6.32472L12.5792 60.1444V60.1519L15.843 61.9748L15.8455 61.9759V58.2467L15.843 58.2452V44.7123C21.4191 44.6898 23.3051 43.9142 24.8072 41.5649C26.5588 38.9535 26.7739 34.5726 24.8209 31.2842C23.4389 29.4478 22.1725 28.1366 18.9298 28.024ZM18.6339 41.5436C24.8266 41.3366 25.0712 31.2842 18.441 31.2842H15.843V41.5436H18.6339ZM12.5793 44.7126H12.5587C10.3603 44.7047 9.69285 45.1776 9.58687 47.3779V54.7287L12.5792 56.4107L12.5793 44.7126Z" fill="white"/>
<path d="M32.655 37.4333V52.5667" stroke="white" stroke-width="0.496174"/>
<path d="M43.3459 53.5V37.2363H50.6623C51.4079 37.2363 52.0759 37.3605 52.6661 37.6091C53.272 37.8421 53.7846 38.1838 54.204 38.6343C54.6234 39.0692 54.9418 39.5974 55.1593 40.2187C55.3768 40.8401 55.4855 41.5235 55.4855 42.2692C55.4855 43.0303 55.3768 43.7216 55.1593 44.3429C54.9418 44.9487 54.6234 45.4769 54.204 45.9273C53.7846 46.3623 53.272 46.704 52.6661 46.9526C52.0759 47.1856 51.4079 47.3021 50.6623 47.3021H46.4216V53.5H43.3459ZM46.4216 44.6458H50.3827C50.973 44.6458 51.439 44.4905 51.7807 44.1798C52.1225 43.8536 52.2933 43.3954 52.2933 42.8051V41.7333C52.2933 41.143 52.1225 40.6925 51.7807 40.3818C51.439 40.0711 50.973 39.9158 50.3827 39.9158H46.4216V44.6458ZM61.0044 53.5V41.3371H63.9869V43.8536H64.1034C64.1811 43.5274 64.2976 43.2167 64.4529 42.9216C64.6238 42.6109 64.8413 42.3391 65.1053 42.1061C65.3694 41.8731 65.6801 41.6867 66.0373 41.5468C66.4102 41.407 66.8373 41.3371 67.3189 41.3371H67.9713V44.1565H67.0393C66.0296 44.1565 65.2684 44.3041 64.7558 44.5992C64.2432 44.8944 63.9869 45.3759 63.9869 46.0438V53.5H61.0044ZM78.0067 53.7796C77.1368 53.7796 76.3524 53.632 75.6533 53.3369C74.9699 53.0418 74.3796 52.6146 73.8825 52.0554C73.401 51.4962 73.0282 50.8282 72.7641 50.0515C72.5 49.2593 72.368 48.3739 72.368 47.3953C72.368 46.4167 72.5 45.539 72.7641 44.7623C73.0282 43.9856 73.401 43.3255 73.8825 42.7818C74.3796 42.2226 74.9699 41.7954 75.6533 41.5002C76.3524 41.2051 77.1368 41.0575 78.0067 41.0575C78.8766 41.0575 79.661 41.2051 80.36 41.5002C81.0591 41.7954 81.6493 42.2226 82.1309 42.7818C82.628 43.3255 83.0085 43.9856 83.2726 44.7623C83.5367 45.539 83.6687 46.4167 83.6687 47.3953C83.6687 48.3739 83.5367 49.2593 83.2726 50.0515C83.0085 50.8282 82.628 51.4962 82.1309 52.0554C81.6493 52.6146 81.0591 53.0418 80.36 53.3369C79.661 53.632 78.8766 53.7796 78.0067 53.7796ZM78.0067 51.3797C78.7989 51.3797 79.4203 51.1389 79.8707 50.6573C80.3212 50.1758 80.5465 49.469 80.5465 48.537V46.2768C80.5465 45.3604 80.3212 44.6613 79.8707 44.1798C79.4203 43.6983 78.7989 43.4575 78.0067 43.4575C77.23 43.4575 76.6164 43.6983 76.166 44.1798C75.7155 44.6613 75.4902 45.3604 75.4902 46.2768V48.537C75.4902 49.469 75.7155 50.1758 76.166 50.6573C76.6164 51.1389 77.23 51.3797 78.0067 51.3797ZM94.4818 39.9624V53.5H91.4061V39.9624H86.7926V37.2363H99.0953V39.9624H94.4818ZM107.965 53.7796C107.064 53.7796 106.256 53.632 105.541 53.3369C104.842 53.0262 104.244 52.599 103.747 52.0554C103.266 51.4962 102.893 50.8282 102.629 50.0515C102.365 49.2593 102.233 48.3739 102.233 47.3953C102.233 46.4322 102.357 45.5623 102.605 44.7856C102.87 44.0089 103.242 43.3488 103.724 42.8051C104.205 42.2459 104.796 41.8187 105.495 41.5235C106.194 41.2129 106.986 41.0575 107.871 41.0575C108.819 41.0575 109.642 41.2206 110.341 41.5468C111.04 41.8731 111.615 42.3158 112.065 42.875C112.516 43.4342 112.85 44.0866 113.067 44.8322C113.3 45.5623 113.417 46.3467 113.417 47.1856V48.1642H105.332V48.4671C105.332 49.3525 105.58 50.0671 106.077 50.6107C106.574 51.1389 107.312 51.403 108.291 51.403C109.036 51.403 109.642 51.2476 110.108 50.9369C110.59 50.6263 111.017 50.2302 111.39 49.7486L112.997 51.5428C112.5 52.2418 111.817 52.7932 110.947 53.1971C110.093 53.5854 109.099 53.7796 107.965 53.7796ZM107.918 43.2944C107.126 43.2944 106.497 43.5585 106.031 44.0866C105.565 44.6147 105.332 45.2982 105.332 46.137V46.3234H110.318V46.1137C110.318 45.2749 110.108 44.5992 109.689 44.0866C109.285 43.5585 108.695 43.2944 107.918 43.2944ZM123.986 53.7796C123.085 53.7796 122.285 53.632 121.586 53.3369C120.887 53.0418 120.297 52.6146 119.816 52.0554C119.35 51.4962 118.992 50.8282 118.744 50.0515C118.495 49.2593 118.371 48.3739 118.371 47.3953C118.371 46.4167 118.495 45.539 118.744 44.7623C118.992 43.9856 119.35 43.3255 119.816 42.7818C120.297 42.2226 120.887 41.7954 121.586 41.5002C122.285 41.2051 123.085 41.0575 123.986 41.0575C125.214 41.0575 126.223 41.3294 127.015 41.8731C127.823 42.4167 128.406 43.1701 128.763 44.1332L126.316 45.2283C126.177 44.7157 125.913 44.2963 125.524 43.9701C125.151 43.6284 124.639 43.4575 123.986 43.4575C123.148 43.4575 122.518 43.7216 122.099 44.2497C121.695 44.7778 121.493 45.4691 121.493 46.3234V48.537C121.493 49.3913 121.695 50.0826 122.099 50.6107C122.518 51.1233 123.148 51.3797 123.986 51.3797C124.701 51.3797 125.252 51.201 125.641 50.8437C126.029 50.4709 126.332 50.0127 126.549 49.469L128.833 50.5641C128.429 51.636 127.815 52.4437 126.992 52.9874C126.169 53.5155 125.167 53.7796 123.986 53.7796ZM134.278 36.2576H137.261V43.3643H137.377C137.626 42.7119 138.014 42.1682 138.542 41.7333C139.086 41.2828 139.831 41.0575 140.779 41.0575C142.037 41.0575 143 41.4692 143.668 42.2925C144.336 43.1157 144.67 44.2885 144.67 45.8108V53.5H141.688V46.1137C141.688 45.2439 141.532 44.5914 141.222 44.1565C140.911 43.7216 140.398 43.5041 139.684 43.5041C139.373 43.5041 139.07 43.5507 138.775 43.6439C138.496 43.7216 138.239 43.8458 138.006 44.0167C137.789 44.172 137.61 44.374 137.47 44.6225C137.33 44.8555 137.261 45.1351 137.261 45.4613V53.5H134.278V36.2576Z" fill="white"/>
<path d="M46.1726 67.5039L45.4521 68.3044V70H44.8408V64.9205H45.4521V67.6204H45.474L46.2017 66.7398L47.7372 64.9205H48.4867L46.5947 67.0964L48.6177 70H47.8609L46.1726 67.5039ZM52.1456 70V64.9205H55.2457V65.459H52.7569V67.1619H55.1002V67.7004H52.7569V69.4615H55.2457V70H52.1456ZM59.0809 70V64.9205H62.181V65.459H59.6922V67.1619H62.0354V67.7004H59.6922V69.4615H62.181V70H59.0809ZM66.0161 70V64.9205H68.0392C68.4952 64.9205 68.8445 65.0515 69.0871 65.3135C69.3345 65.5706 69.4582 65.9248 69.4582 66.3759C69.4582 66.8271 69.3345 67.1837 69.0871 67.4457C68.8445 67.7028 68.4952 67.8314 68.0392 67.8314H66.6274V70H66.0161ZM66.6274 67.2929H68.0392C68.2818 67.2929 68.4685 67.2298 68.5995 67.1037C68.7354 66.9775 68.8033 66.798 68.8033 66.5652V66.1867C68.8033 65.9539 68.7354 65.7744 68.5995 65.6482C68.4685 65.5221 68.2818 65.459 68.0392 65.459H66.6274V67.2929ZM79.3245 70.0873C78.6793 70.0873 78.1771 69.869 77.8181 69.4324C77.4591 68.9909 77.2796 68.3432 77.2796 67.4894C77.2796 66.6355 77.4591 65.9806 77.8181 65.5245C78.1771 65.0636 78.6793 64.8332 79.3245 64.8332C79.7514 64.8332 80.108 64.9302 80.3942 65.1243C80.6853 65.3183 80.9109 65.5924 81.071 65.9466L80.5762 66.245C80.4743 65.983 80.319 65.7744 80.1104 65.6191C79.9018 65.459 79.6398 65.379 79.3245 65.379C79.1062 65.379 78.9097 65.4202 78.735 65.5027C78.5652 65.5852 78.4197 65.704 78.2984 65.8593C78.182 66.0097 78.0922 66.1916 78.0292 66.4051C77.9661 66.6137 77.9345 66.849 77.9345 67.1109V67.8678C77.9345 68.3917 78.0558 68.8017 78.2984 69.0976C78.541 69.3936 78.883 69.5415 79.3245 69.5415C79.6495 69.5415 79.9212 69.4591 80.1395 69.2941C80.3579 69.1243 80.518 68.9011 80.6198 68.6246L81.1074 68.9302C80.9473 69.2893 80.7169 69.5731 80.4161 69.7817C80.1153 69.9854 79.7514 70.0873 79.3245 70.0873ZM86.5537 70.0873C86.2238 70.0873 85.9254 70.0315 85.6586 69.92C85.3966 69.8035 85.171 69.6361 84.9818 69.4178C84.7974 69.1947 84.6543 68.9205 84.5524 68.5955C84.4506 68.2656 84.3996 67.8872 84.3996 67.4603C84.3996 67.0333 84.4506 66.6573 84.5524 66.3323C84.6543 66.0072 84.7974 65.7331 84.9818 65.51C85.171 65.2868 85.3966 65.1194 85.6586 65.0078C85.9254 64.8914 86.2238 64.8332 86.5537 64.8332C86.8787 64.8332 87.1747 64.8914 87.4415 65.0078C87.7083 65.1194 87.9339 65.2868 88.1183 65.51C88.3075 65.7331 88.453 66.0072 88.5549 66.3323C88.6568 66.6573 88.7077 67.0333 88.7077 67.4603C88.7077 67.8872 88.6568 68.2656 88.5549 68.5955C88.453 68.9205 88.3075 69.1947 88.1183 69.4178C87.9339 69.6361 87.7083 69.8035 87.4415 69.92C87.1747 70.0315 86.8787 70.0873 86.5537 70.0873ZM86.5537 69.5415C86.772 69.5415 86.9733 69.5027 87.1577 69.4251C87.342 69.3475 87.4997 69.2359 87.6307 69.0903C87.7665 68.9448 87.8708 68.7702 87.9436 68.5664C88.0164 68.3626 88.0528 68.1346 88.0528 67.8823V67.0382C88.0528 66.7859 88.0164 66.5579 87.9436 66.3541C87.8708 66.1504 87.7665 65.9757 87.6307 65.8302C87.4997 65.6846 87.342 65.573 87.1577 65.4954C86.9733 65.4178 86.772 65.379 86.5537 65.379C86.3354 65.379 86.134 65.4178 85.9497 65.4954C85.7653 65.573 85.6052 65.6846 85.4694 65.8302C85.3384 65.9757 85.2365 66.1504 85.1637 66.3541C85.091 66.5579 85.0546 66.7859 85.0546 67.0382V67.8823C85.0546 68.1346 85.091 68.3626 85.1637 68.5664C85.2365 68.7702 85.3384 68.9448 85.4694 69.0903C85.6052 69.2359 85.7653 69.3475 85.9497 69.4251C86.134 69.5027 86.3354 69.5415 86.5537 69.5415ZM94.3986 70.0873C94.0687 70.0873 93.7703 70.0315 93.5035 69.92C93.2415 69.8035 93.0159 69.6361 92.8267 69.4178C92.6423 69.1947 92.4992 68.9205 92.3973 68.5955C92.2955 68.2656 92.2445 67.8872 92.2445 67.4603C92.2445 67.0333 92.2955 66.6573 92.3973 66.3323C92.4992 66.0072 92.6423 65.7331 92.8267 65.51C93.0159 65.2868 93.2415 65.1194 93.5035 65.0078C93.7703 64.8914 94.0687 64.8332 94.3986 64.8332C94.7236 64.8332 95.0196 64.8914 95.2864 65.0078C95.5532 65.1194 95.7788 65.2868 95.9632 65.51C96.1524 65.7331 96.2979 66.0072 96.3998 66.3323C96.5017 66.6573 96.5526 67.0333 96.5526 67.4603C96.5526 67.8872 96.5017 68.2656 96.3998 68.5955C96.2979 68.9205 96.1524 69.1947 95.9632 69.4178C95.7788 69.6361 95.5532 69.8035 95.2864 69.92C95.0196 70.0315 94.7236 70.0873 94.3986 70.0873ZM94.3986 69.5415C94.6169 69.5415 94.8182 69.5027 95.0026 69.4251C95.1869 69.3475 95.3446 69.2359 95.4756 69.0903C95.6114 68.9448 95.7157 68.7702 95.7885 68.5664C95.8613 68.3626 95.8977 68.1346 95.8977 67.8823V67.0382C95.8977 66.7859 95.8613 66.5579 95.7885 66.3541C95.7157 66.1504 95.6114 65.9757 95.4756 65.8302C95.3446 65.6846 95.1869 65.573 95.0026 65.4954C94.8182 65.4178 94.6169 65.379 94.3986 65.379C94.1803 65.379 93.9789 65.4178 93.7946 65.4954C93.6102 65.573 93.4501 65.6846 93.3143 65.8302C93.1833 65.9757 93.0814 66.1504 93.0086 66.3541C92.9358 66.5579 92.8995 66.7859 92.8995 67.0382V67.8823C92.8995 68.1346 92.9358 68.3626 93.0086 68.5664C93.0814 68.7702 93.1833 68.9448 93.3143 69.0903C93.4501 69.2359 93.6102 69.3475 93.7946 69.4251C93.9789 69.5027 94.1803 69.5415 94.3986 69.5415ZM100.344 70V64.9205H100.955V69.4615H103.117V70H100.344Z" fill="white"/>
</svg>
