<svg width="35" height="34" viewBox="0 0 35 34" fill="none" xmlns="http://www.w3.org/2000/svg">
<path d="M28.6247 4.50049H6.37469C6.01002 4.50049 5.66029 4.64535 5.40242 4.90322C5.14456 5.16108 4.99969 5.51082 4.99969 5.87549V28.1255C4.99969 28.4902 5.14456 28.8399 5.40242 29.0978C5.66029 29.3556 6.01002 29.5005 6.37469 29.5005H18.3497V19.813H15.0997V16.063H18.3497V13.2505C18.2824 12.5902 18.3603 11.9231 18.5781 11.2962C18.7959 10.6692 19.1482 10.0974 19.6103 9.621C20.0724 9.14458 20.6332 8.77504 21.2532 8.53829C21.8733 8.30153 22.5376 8.2033 23.1997 8.25049C24.1726 8.2445 25.145 8.29458 26.1122 8.40049V11.7755H24.1247C22.5497 11.7755 22.2497 12.5255 22.2497 13.613V16.0255H25.9997L25.5122 19.7755H22.2497V29.5005H28.6247C28.8053 29.5005 28.9841 29.4649 29.1509 29.3958C29.3177 29.3267 29.4693 29.2254 29.597 29.0978C29.7246 28.9701 29.8259 28.8185 29.895 28.6517C29.9641 28.4849 29.9997 28.3061 29.9997 28.1255V5.87549C29.9997 5.69492 29.9641 5.51612 29.895 5.3493C29.8259 5.18248 29.7246 5.0309 29.597 4.90322C29.4693 4.77554 29.3177 4.67425 29.1509 4.60515C28.9841 4.53605 28.8053 4.50049 28.6247 4.50049Z" fill="black"/>
</svg>
