<svg width="27" height="28" viewBox="0 0 27 28" fill="none" xmlns="http://www.w3.org/2000/svg">
<path d="M2.5313 3.63732V24.3619C2.53143 24.4069 2.54485 24.4508 2.56985 24.4882C2.59485 24.5255 2.63033 24.5547 2.67183 24.572C2.71334 24.5893 2.75903 24.5939 2.80316 24.5854C2.8473 24.5768 2.88793 24.5554 2.91995 24.5238L13.711 14.0001L2.91995 3.47543C2.88793 3.44386 2.8473 3.42245 2.80316 3.41388C2.75903 3.4053 2.71334 3.40996 2.67183 3.42725C2.63033 3.44453 2.59485 3.47369 2.56985 3.51107C2.54485 3.54844 2.53143 3.59236 2.5313 3.63732ZM18.2356 9.67593L4.705 2.22141L4.69657 2.21666C4.46348 2.0901 4.242 2.40545 4.43289 2.58897L15.0393 12.7308L18.2356 9.67593ZM4.43395 25.4113C4.242 25.5948 4.46348 25.9102 4.69762 25.7836L4.70606 25.7789L18.2356 18.3244L15.0393 15.2684L4.43395 25.4113ZM23.6978 12.6818L19.9194 10.6009L16.3667 14.0001L19.9194 17.3978L23.6978 15.3185C24.7256 14.7506 24.7256 13.2497 23.6978 12.6818Z" fill="black"/>
</svg>
