<svg width="27" height="28" viewBox="0 0 27 28" fill="none" xmlns="http://www.w3.org/2000/svg">
<path d="M13.25 19.3332C14.6644 19.3332 16.021 18.7713 17.0212 17.7711C18.0214 16.7709 18.5833 15.4143 18.5833 13.9998C18.5833 12.5853 18.0214 11.2288 17.0212 10.2286C16.021 9.22841 14.6644 8.6665 13.25 8.6665C11.8355 8.6665 10.4789 9.22841 9.47872 10.2286C8.47853 11.2288 7.91663 12.5853 7.91663 13.9998C7.91663 15.4143 8.47853 16.7709 9.47872 17.7711C10.4789 18.7713 11.8355 19.3332 13.25 19.3332Z" stroke="white" stroke-width="2.12497" stroke-linecap="round" stroke-linejoin="round"/>
<path d="M1.24994 19.3332V8.66654C1.24994 6.89843 1.95232 5.20274 3.20256 3.9525C4.4528 2.70226 6.1485 1.99988 7.91661 1.99988H18.5833C20.3514 1.99988 22.0471 2.70226 23.2973 3.9525C24.5476 5.20274 25.2499 6.89843 25.2499 8.66654V19.3332C25.2499 21.1013 24.5476 22.797 23.2973 24.0473C22.0471 25.2975 20.3514 25.9999 18.5833 25.9999H7.91661C6.1485 25.9999 4.4528 25.2975 3.20256 24.0473C1.95232 22.797 1.24994 21.1013 1.24994 19.3332Z" stroke="white" stroke-width="2.12497"/>
<path d="M20.5833 6.68074L20.5974 6.66516" stroke="white" stroke-width="2.12497" stroke-linecap="round" stroke-linejoin="round"/>
</svg>
