<svg width="34" height="34" viewBox="0 0 34 34" fill="none" xmlns="http://www.w3.org/2000/svg">
<path d="M16.75 22.3062C18.2234 22.3062 19.6365 21.7209 20.6783 20.679C21.7202 19.6372 22.3055 18.2241 22.3055 16.7507C22.3055 15.2772 21.7202 13.8642 20.6783 12.8223C19.6365 11.7804 18.2234 11.1951 16.75 11.1951C15.2765 11.1951 13.8635 11.7804 12.8216 12.8223C11.7797 13.8642 11.1944 15.2772 11.1944 16.7507C11.1944 18.2241 11.7797 19.6372 12.8216 20.679C13.8635 21.7209 15.2765 22.3062 16.75 22.3062Z" stroke="black" stroke-width="2.12497" stroke-linecap="round" stroke-linejoin="round"/>
<path d="M4.24994 22.3062V11.1951C4.24994 9.35332 4.98158 7.58697 6.28392 6.28464C7.58626 4.9823 9.3526 4.25066 11.1944 4.25066H22.3055C24.1473 4.25066 25.9136 4.9823 27.216 6.28464C28.5183 7.58697 29.2499 9.35332 29.2499 11.1951V22.3062C29.2499 24.148 28.5183 25.9143 27.216 27.2167C25.9136 28.519 24.1473 29.2507 22.3055 29.2507H11.1944C9.3526 29.2507 7.58626 28.519 6.28392 27.2167C4.98158 25.9143 4.24994 24.148 4.24994 22.3062Z" stroke="black" stroke-width="2.12497"/>
<path d="M24.3888 9.12595L24.403 9.11037" stroke="black" stroke-width="2.12497" stroke-linecap="round" stroke-linejoin="round"/>
</svg>
