<svg width="138" height="40" viewBox="0 0 138 40" fill="none" xmlns="http://www.w3.org/2000/svg">
<rect width="138" height="40" fill="#198909"/>
<path d="M21.488 26.5V15.332H22.832V25.316H27.584V26.5H21.488ZM35.36 26.5C34.88 26.5 34.5333 26.372 34.32 26.116C34.1173 25.86 33.9893 25.54 33.936 25.156H33.856C33.6747 25.668 33.376 26.052 32.96 26.308C32.544 26.564 32.048 26.692 31.472 26.692C30.5973 26.692 29.9147 26.468 29.424 26.02C28.944 25.572 28.704 24.964 28.704 24.196C28.704 23.4173 28.9867 22.82 29.552 22.404C30.128 21.988 31.0187 21.78 32.224 21.78H33.856V20.964C33.856 20.3773 33.696 19.9293 33.376 19.62C33.056 19.3107 32.5653 19.156 31.904 19.156C31.4027 19.156 30.9813 19.268 30.64 19.492C30.3093 19.716 30.032 20.0147 29.808 20.388L29.04 19.668C29.264 19.22 29.6213 18.8413 30.112 18.532C30.6027 18.212 31.2213 18.052 31.968 18.052C32.9707 18.052 33.7493 18.2973 34.304 18.788C34.8587 19.2787 35.136 19.9613 35.136 20.836V25.38H36.08V26.5H35.36ZM31.68 25.604C32 25.604 32.2933 25.5667 32.56 25.492C32.8267 25.4173 33.056 25.3107 33.248 25.172C33.44 25.0333 33.5893 24.8733 33.696 24.692C33.8027 24.5107 33.856 24.3133 33.856 24.1V22.74H32.16C31.424 22.74 30.8853 22.8467 30.544 23.06C30.2133 23.2733 30.048 23.5827 30.048 23.988V24.324C30.048 24.7293 30.192 25.044 30.48 25.268C30.7787 25.492 31.1787 25.604 31.68 25.604ZM43.1869 25.156H43.1229C42.6215 26.18 41.8162 26.692 40.7069 26.692C40.1949 26.692 39.7309 26.5907 39.3149 26.388C38.8989 26.1853 38.5415 25.8973 38.2429 25.524C37.9549 25.1507 37.7309 24.6973 37.5709 24.164C37.4215 23.6307 37.3469 23.0333 37.3469 22.372C37.3469 21.7107 37.4215 21.1133 37.5709 20.58C37.7309 20.0467 37.9549 19.5933 38.2429 19.22C38.5415 18.8467 38.8989 18.5587 39.3149 18.356C39.7309 18.1533 40.1949 18.052 40.7069 18.052C41.2829 18.052 41.7735 18.18 42.1789 18.436C42.5949 18.6813 42.9095 19.0653 43.1229 19.588H43.1869V14.66H44.4669V26.5H43.1869V25.156ZM41.0589 25.54C41.3469 25.54 41.6189 25.5027 41.8749 25.428C42.1415 25.3533 42.3709 25.2467 42.5629 25.108C42.7549 24.9587 42.9042 24.7827 43.0109 24.58C43.1282 24.3667 43.1869 24.1267 43.1869 23.86V20.788C43.1869 20.564 43.1282 20.356 43.0109 20.164C42.9042 19.9613 42.7549 19.7907 42.5629 19.652C42.3709 19.5133 42.1415 19.4067 41.8749 19.332C41.6189 19.2467 41.3469 19.204 41.0589 19.204C40.3335 19.204 39.7629 19.4333 39.3469 19.892C38.9309 20.34 38.7229 20.932 38.7229 21.668V23.076C38.7229 23.812 38.9309 24.4093 39.3469 24.868C39.7629 25.316 40.3335 25.54 41.0589 25.54ZM52.4681 25.156H52.4041C51.9028 26.18 51.0975 26.692 49.9881 26.692C49.4761 26.692 49.0121 26.5907 48.5961 26.388C48.1801 26.1853 47.8228 25.8973 47.5241 25.524C47.2361 25.1507 47.0121 24.6973 46.8521 24.164C46.7028 23.6307 46.6281 23.0333 46.6281 22.372C46.6281 21.7107 46.7028 21.1133 46.8521 20.58C47.0121 20.0467 47.2361 19.5933 47.5241 19.22C47.8228 18.8467 48.1801 18.5587 48.5961 18.356C49.0121 18.1533 49.4761 18.052 49.9881 18.052C50.5641 18.052 51.0548 18.18 51.4601 18.436C51.8761 18.6813 52.1908 19.0653 52.4041 19.588H52.4681V14.66H53.7481V26.5H52.4681V25.156ZM50.3401 25.54C50.6281 25.54 50.9001 25.5027 51.1561 25.428C51.4228 25.3533 51.6521 25.2467 51.8441 25.108C52.0361 24.9587 52.1855 24.7827 52.2921 24.58C52.4095 24.3667 52.4681 24.1267 52.4681 23.86V20.788C52.4681 20.564 52.4095 20.356 52.2921 20.164C52.1855 19.9613 52.0361 19.7907 51.8441 19.652C51.6521 19.5133 51.4228 19.4067 51.1561 19.332C50.9001 19.2467 50.6281 19.204 50.3401 19.204C49.6148 19.204 49.0441 19.4333 48.6281 19.892C48.2121 20.34 48.0041 20.932 48.0041 21.668V23.076C48.0041 23.812 48.2121 24.4093 48.6281 24.868C49.0441 25.316 49.6148 25.54 50.3401 25.54ZM62.4694 26.5C61.9894 26.5 61.6427 26.372 61.4294 26.116C61.2267 25.86 61.0987 25.54 61.0454 25.156H60.9654C60.784 25.668 60.4854 26.052 60.0694 26.308C59.6534 26.564 59.1574 26.692 58.5814 26.692C57.7067 26.692 57.024 26.468 56.5334 26.02C56.0534 25.572 55.8134 24.964 55.8134 24.196C55.8134 23.4173 56.096 22.82 56.6614 22.404C57.2374 21.988 58.128 21.78 59.3334 21.78H60.9654V20.964C60.9654 20.3773 60.8054 19.9293 60.4854 19.62C60.1654 19.3107 59.6747 19.156 59.0134 19.156C58.512 19.156 58.0907 19.268 57.7494 19.492C57.4187 19.716 57.1414 20.0147 56.9174 20.388L56.1494 19.668C56.3734 19.22 56.7307 18.8413 57.2214 18.532C57.712 18.212 58.3307 18.052 59.0774 18.052C60.08 18.052 60.8587 18.2973 61.4134 18.788C61.968 19.2787 62.2454 19.9613 62.2454 20.836V25.38H63.1894V26.5H62.4694ZM58.7894 25.604C59.1094 25.604 59.4027 25.5667 59.6694 25.492C59.936 25.4173 60.1654 25.3107 60.3574 25.172C60.5494 25.0333 60.6987 24.8733 60.8054 24.692C60.912 24.5107 60.9654 24.3133 60.9654 24.1V22.74H59.2694C58.5334 22.74 57.9947 22.8467 57.6534 23.06C57.3227 23.2733 57.1574 23.5827 57.1574 23.988V24.324C57.1574 24.7293 57.3014 25.044 57.5894 25.268C57.888 25.492 58.288 25.604 58.7894 25.604ZM68.7975 26.5V18.244H70.0775V19.588H70.1415C70.3442 19.1187 70.6268 18.7453 70.9895 18.468C71.3628 18.1907 71.8588 18.052 72.4775 18.052C73.3308 18.052 74.0028 18.3293 74.4935 18.884C74.9948 19.428 75.2455 20.2013 75.2455 21.204V26.5H73.9655V21.428C73.9655 19.9453 73.3415 19.204 72.0935 19.204C71.8375 19.204 71.5868 19.236 71.3415 19.3C71.1068 19.364 70.8935 19.46 70.7015 19.588C70.5095 19.716 70.3548 19.8813 70.2375 20.084C70.1308 20.276 70.0775 20.5053 70.0775 20.772V26.5H68.7975ZM80.9953 26.692C80.4299 26.692 79.9179 26.5907 79.4593 26.388C79.0113 26.1853 78.6219 25.8973 78.2913 25.524C77.9713 25.14 77.7206 24.6867 77.5393 24.164C77.3686 23.6307 77.2833 23.0333 77.2833 22.372C77.2833 21.7213 77.3686 21.1293 77.5393 20.596C77.7206 20.0627 77.9713 19.6093 78.2913 19.236C78.6219 18.852 79.0113 18.5587 79.4593 18.356C79.9179 18.1533 80.4299 18.052 80.9953 18.052C81.5499 18.052 82.0459 18.1533 82.4833 18.356C82.9206 18.5587 83.2939 18.8413 83.6033 19.204C83.9126 19.556 84.1473 19.9773 84.3073 20.468C84.4779 20.9587 84.5633 21.4973 84.5633 22.084V22.692H78.6273V23.076C78.6273 23.428 78.6806 23.7587 78.7873 24.068C78.9046 24.3667 79.0646 24.628 79.2673 24.852C79.4806 25.076 79.7366 25.252 80.0353 25.38C80.3446 25.508 80.6913 25.572 81.0753 25.572C81.5979 25.572 82.0513 25.4493 82.4353 25.204C82.8299 24.9587 83.1339 24.6067 83.3473 24.148L84.2593 24.804C83.9926 25.3693 83.5766 25.828 83.0113 26.18C82.4459 26.5213 81.7739 26.692 80.9953 26.692ZM80.9953 19.124C80.6433 19.124 80.3233 19.188 80.0353 19.316C79.7473 19.4333 79.4966 19.604 79.2833 19.828C79.0806 20.052 78.9206 20.3187 78.8033 20.628C78.6859 20.9267 78.6273 21.2573 78.6273 21.62V21.732H83.1873V21.556C83.1873 20.82 82.9846 20.2333 82.5793 19.796C82.1846 19.348 81.6566 19.124 80.9953 19.124ZM86.6725 26.5V18.244H87.9525V19.764H88.0325C88.1818 19.3693 88.4485 19.0173 88.8325 18.708C89.2165 18.3987 89.7445 18.244 90.4165 18.244H90.9125V19.524H90.1605C89.4672 19.524 88.9232 19.6573 88.5285 19.924C88.1445 20.18 87.9525 20.5053 87.9525 20.9V26.5H86.6725Z" fill="white"/>
<path d="M111 17L106 12M106 12L101 17M106 12V25M100 28H112" stroke="white" stroke-linecap="round" stroke-linejoin="round"/>
</svg>
